<svg width="465" height="144" viewBox="0 0 465 144" fill="none" xmlns="http://www.w3.org/2000/svg">
<g clip-path="url(#clip0_29_102)" filter="url(#filter0_d_29_102)">
<path d="M454.878 30.4869C452.014 25.3973 447.764 21.2414 442.62 18.5135C437.859 15.987 432.478 14.7054 426.623 14.7054C425.401 14.7054 424.197 14.7787 423.012 14.8885C421.917 12.7282 420.495 10.7692 418.725 9.08491C414.639 5.20364 409.131 3.06161 403.203 3.06161C397.275 3.06161 391.438 5.31348 387.333 9.43276C385.528 11.2452 384.068 13.369 383.029 15.7124C381.186 16.1884 379.435 16.8658 377.739 17.6896C373.872 15.7124 369.476 14.7054 364.624 14.7054C362.216 14.7054 359.863 14.9801 357.62 15.511C355.778 15.0533 353.862 14.797 351.874 14.797C348.39 14.797 345.07 15.5659 342.097 16.9573C338.267 15.4744 333.944 14.6871 329.165 14.6871C326.848 14.6871 324.368 14.9251 321.814 15.3828C319.388 15.8222 316.889 16.5362 314.39 17.4699C312.694 16.6461 310.888 15.987 309.009 15.5293C307.915 13.1676 306.437 11.0439 304.577 9.21307C300.491 5.22194 294.909 3.025 288.872 3.025C285.68 3.025 282.597 3.68408 279.806 4.87409C276.997 3.66577 273.897 3.025 270.65 3.025C268.753 3.025 266.91 3.263 265.141 3.70239C262.642 2.69545 259.614 1.98145 255.984 1.98145C248.524 1.98145 243.526 4.98394 240.608 7.56536C238.802 7.12597 236.905 6.86966 234.972 6.86966C228.97 6.86966 223.407 9.06661 219.303 13.076C218.701 13.6619 218.136 14.3027 217.607 14.9618C216.622 15.0899 215.637 15.273 214.688 15.4927C212.846 15.0167 210.912 14.7787 208.924 14.7787C205.44 14.7787 202.121 15.5476 199.147 16.939C195.299 15.4561 190.976 14.6688 186.215 14.6688C183.898 14.6688 181.418 14.9068 178.864 15.3645C176.31 15.8222 173.684 16.5728 171.039 17.5981C170.948 17.6347 170.857 17.6713 170.747 17.7079C166.716 15.7124 162.211 14.6688 157.541 14.6688C155.206 14.6688 152.926 14.9434 150.719 15.4561C148.895 14.9984 147.016 14.7787 145.065 14.7787C141.891 14.7787 138.845 15.4011 136.072 16.5912C132.844 15.3279 129.323 14.6871 125.529 14.6871C122.647 14.6871 119.802 15.1082 117.102 15.9321C114.457 15.1082 111.63 14.6871 108.73 14.6871C106.45 14.6871 104.224 14.9434 102.072 15.4561C100.285 15.0167 98.424 14.797 96.527 14.797C92.8425 14.797 89.3221 15.6391 86.203 17.2136C82.1536 15.5476 77.7394 14.6871 72.9969 14.6871C72.2856 14.6871 71.5924 14.7421 70.881 14.7787C69.057 12.124 66.6675 9.85384 63.8038 8.15121C60.8124 6.33873 57.4196 4.96563 53.7168 4.08685C50.5065 3.33623 47.2233 2.95176 43.9218 2.95176C38.7232 2.95176 33.8166 3.79393 29.3294 5.45995C24.3498 7.30905 20.0086 10.1102 16.4335 13.79C12.9131 17.3967 10.2318 21.6991 8.4442 26.569C6.82081 31.0178 5.99999 35.8694 5.99999 40.9956C5.99999 47.9709 7.4957 54.3604 10.4142 59.9626C13.132 65.1803 16.926 69.4278 21.705 72.65C17.1449 74.3526 13.4421 77.3368 11.0161 81.2364C8.82725 84.7149 7.67811 88.706 7.67811 92.7887C7.67811 94.1434 7.80579 95.4799 8.04291 96.7981C6.83905 99.5992 5.98175 103.041 5.98175 107.179C5.98175 112.488 7.51394 117.559 10.3959 121.807C13.059 125.78 16.6524 128.892 21.0848 131.052C25.0977 133.011 29.5666 134.018 34.382 134.018C36.5162 134.018 38.5956 133.798 40.5838 133.341C42.2436 133.707 43.9582 133.908 45.7093 133.908C51.7469 133.908 57.2737 131.62 61.3231 127.5C61.3231 127.5 61.3231 127.5 61.3413 127.519C65.4454 131.638 71.0817 133.908 77.2287 133.908C81.7158 133.908 85.8199 132.682 89.2309 130.54C93.9551 132.846 99.3178 134.018 105.191 134.018C107.781 134.018 110.463 133.743 113.18 133.213C115.132 132.828 116.993 132.261 118.799 131.546C122.064 133.011 126.058 134.018 130.965 134.018C131.895 134.018 132.825 133.981 133.81 133.908C134.504 133.853 135.069 133.798 135.543 133.743L135.999 133.689L136.455 133.615C137.057 133.524 137.641 133.396 138.225 133.249C139.957 133.67 141.763 133.908 143.605 133.908C147.327 133.908 150.829 133.048 153.93 131.473C157.997 133.139 162.466 134.018 167.245 134.018C169.58 134.018 171.988 133.762 174.413 133.267C175.253 133.103 176.092 132.883 176.931 132.627C179.284 133.451 181.801 133.89 184.427 133.89C187.875 133.89 191.14 133.158 194.077 131.803C197.597 133.249 201.409 134 205.44 134C207.775 134 210.055 133.725 212.262 133.213C214.086 133.67 216.002 133.89 217.972 133.89C221.091 133.89 224.1 133.286 226.836 132.132C230.156 133.359 233.731 134 237.507 134C239.641 134 241.721 133.78 243.709 133.322C245.369 133.689 247.083 133.89 248.834 133.89C252.136 133.89 255.291 133.194 258.137 131.876C261.603 133.267 265.342 134 269.3 134C271.635 134 273.915 133.725 276.122 133.213C277.946 133.67 279.861 133.89 281.831 133.89C285.552 133.89 289.091 133.029 292.228 131.418C296.442 133.121 301.129 134 306.182 134C308.772 134 311.453 133.725 314.153 133.194C317.6 132.517 320.847 131.327 323.802 129.642C327.614 127.5 330.642 124.388 332.594 120.617C334.382 117.138 335.202 113.275 334.984 109.412C334.947 108.68 334.856 107.966 334.746 107.27C335.275 105.439 335.549 103.499 335.549 101.503C335.549 97.4205 334.929 93.521 333.689 89.896C332.266 85.7584 330.077 82.1151 327.177 79.0394C329.037 78.9845 330.861 78.8014 332.612 78.3986C334.272 78.7648 335.987 78.9662 337.738 78.9662C340.182 78.9662 342.553 78.5817 344.76 77.8494C347.004 78.5634 349.393 78.9662 351.838 78.9662C355.121 78.9662 358.185 78.3254 360.94 77.1537C363.73 78.3437 366.795 78.9662 369.95 78.9662C373.361 78.9662 376.59 78.2522 379.49 76.934C382.992 78.3437 386.75 79.076 390.744 79.076C393.079 79.076 395.359 78.8014 397.566 78.2888C399.39 78.7465 401.306 78.9662 403.276 78.9662C406.924 78.9662 410.389 78.124 413.472 76.5862C417.485 78.2339 421.881 79.076 426.587 79.076C430.892 79.076 434.959 78.3803 438.698 77.0255C442.857 75.506 446.524 73.2175 449.588 70.215C452.707 67.1759 455.133 63.4777 456.738 59.2669C458.216 55.4222 458.964 51.248 458.964 46.8541C458.964 40.8308 457.577 35.3201 454.841 30.4869H454.878Z" fill="white"/>
<path d="M43.9035 60.9144C39.7812 60.9144 36.2243 60.1089 33.2512 58.4795C30.278 56.8501 27.9979 54.5433 26.4475 51.5408C24.8788 48.5383 24.0945 45.0232 24.0945 40.9954C24.0945 37.9929 24.5505 35.265 25.4443 32.8118C26.338 30.3585 27.6331 28.2531 29.3477 26.4956C31.0623 24.738 33.1417 23.4015 35.6224 22.4861C38.0849 21.5707 40.8574 21.113 43.9035 21.113C45.8005 21.113 47.6793 21.3327 49.5398 21.7721C51.4003 22.2115 53.0237 22.8523 54.41 23.6945C55.322 24.2437 55.9422 24.9028 56.2705 25.6534C56.5989 26.404 56.7083 27.1546 56.5806 27.9053C56.4529 28.6559 56.1428 29.315 55.6503 29.8825C55.1579 30.4501 54.5559 30.8162 53.8263 30.981C53.0967 31.1458 52.2759 30.981 51.3639 30.4501C50.2694 29.791 49.1203 29.315 47.9347 29.0221C46.749 28.7291 45.5087 28.5827 44.2319 28.5827C41.7877 28.5827 39.7447 29.077 38.0666 30.029C36.4067 30.9993 35.1664 32.3907 34.3456 34.2032C33.5248 36.0157 33.1235 38.2859 33.1235 40.9954C33.1235 43.705 33.5248 45.8836 34.3456 47.751C35.1664 49.6184 36.4067 51.0282 38.0666 51.9985C39.7265 52.9688 41.7877 53.4631 44.2319 53.4631C45.3993 53.4631 46.5849 53.3166 47.807 53.0237C49.0291 52.7308 50.1965 52.2731 51.3456 51.6506C52.2941 51.1746 53.1332 50.9915 53.8628 51.1197C54.5924 51.2479 55.2126 51.5774 55.7051 52.1083C56.1976 52.6393 56.5259 53.28 56.6718 54.0307C56.8177 54.7813 56.7448 55.5136 56.4529 56.2276C56.1611 56.9416 55.6139 57.5458 54.8113 58.0584C53.425 58.9738 51.7652 59.6695 49.8317 60.1821C47.8982 60.6764 45.9282 60.9144 43.9218 60.9144H43.9035Z" fill="#4BA9A9"/>
<path d="M72.9605 60.9147C70.0785 60.9147 67.5796 60.3471 65.4637 59.212C63.3478 58.0769 61.6879 56.4658 60.5205 54.3421C59.3349 52.2367 58.733 49.7468 58.733 46.8542C58.733 44.6938 59.0613 42.7532 59.718 41.0323C60.3746 39.3113 61.3231 37.8284 62.5817 36.6018C63.8403 35.3751 65.3542 34.4414 67.1235 33.8006C68.8929 33.1599 70.8446 32.8486 72.9605 32.8486C75.8425 32.8486 78.3596 33.4162 80.4755 34.5513C82.5914 35.6864 84.2695 37.2975 85.4551 39.4212C86.6408 41.5266 87.2245 43.9981 87.2245 46.8542C87.2245 49.0145 86.8779 50.9735 86.2212 52.731C85.5463 54.4886 84.5796 55.9715 83.3393 57.1798C82.0989 58.3882 80.6032 59.3219 78.8521 59.9626C77.101 60.6034 75.1311 60.9147 72.9422 60.9147H72.9605ZM72.9605 54.7632C74.1643 54.7632 75.204 54.4703 76.0796 53.921C76.9551 53.3535 77.6483 52.4747 78.159 51.303C78.6697 50.1313 78.9251 48.6484 78.9251 46.8542C78.9251 44.1812 78.3779 42.204 77.2834 40.959C76.189 39.6958 74.748 39.055 72.9605 39.055C71.7931 39.055 70.7534 39.3296 69.8596 39.8789C68.9658 40.4281 68.2727 41.2886 67.7802 42.4603C67.2877 43.632 67.0323 45.0966 67.0323 46.8542C67.0323 49.5637 67.5796 51.5593 68.674 52.8409C69.7684 54.1224 71.1912 54.7632 72.9422 54.7632H72.9605Z" fill="#4BA9A9"/>
<path d="M96.4906 60.8048C95.2137 60.8048 94.2105 60.4386 93.4809 59.7429C92.7513 59.0289 92.3865 57.9854 92.3865 56.6306V37.1327C92.3865 35.7779 92.7513 34.7343 93.4444 34.0203C94.1558 33.3063 95.1773 32.9585 96.4906 32.9585C97.8039 32.9585 98.7524 33.3246 99.4455 34.0203C100.139 34.716 100.485 35.7779 100.485 37.1327V40.5929L99.8833 38.5058C100.613 36.7848 101.744 35.4117 103.276 34.3865C104.808 33.3613 106.614 32.8486 108.693 32.8486C110.773 32.8486 112.506 33.3429 113.892 34.3316C115.278 35.3202 116.263 36.8214 116.847 38.8353H116.081C116.883 37.0045 118.124 35.5582 119.802 34.478C121.48 33.3979 123.377 32.8669 125.493 32.8669C127.609 32.8669 129.232 33.2697 130.582 34.0753C131.932 34.8808 132.935 36.1257 133.591 37.8467C134.248 39.5493 134.576 41.673 134.576 44.2545V56.6672C134.576 58.022 134.212 59.0656 133.519 59.7796C132.807 60.4936 131.767 60.8414 130.418 60.8414C129.141 60.8414 128.138 60.4753 127.408 59.7796C126.678 59.0839 126.314 58.022 126.314 56.6672V44.5291C126.314 42.6983 126.04 41.3801 125.493 40.5563C124.946 39.7324 123.961 39.3296 122.538 39.3296C121.006 39.3296 119.802 39.8789 118.926 40.9773C118.051 42.0758 117.613 43.632 117.613 45.6459V56.6855C117.613 58.0403 117.266 59.0839 116.555 59.7979C115.844 60.5119 114.822 60.8597 113.509 60.8597C112.196 60.8597 111.174 60.4936 110.444 59.7979C109.715 59.0839 109.35 58.0403 109.35 56.6855V44.5474C109.35 42.7166 109.058 41.3984 108.474 40.5746C107.891 39.7507 106.942 39.3479 105.629 39.3479C104.06 39.3479 102.838 39.8972 101.963 40.9956C101.087 42.0941 100.649 43.6503 100.649 45.6642V56.7038C100.649 59.4866 99.2631 60.878 96.4906 60.878V60.8048Z" fill="#4BA9A9"/>
<path d="M145.028 70.6911C143.751 70.6911 142.748 70.3432 142.019 69.6475C141.289 68.9518 140.924 67.9083 140.924 66.5169V37.1327C140.924 35.7779 141.289 34.7343 141.982 34.0203C142.675 33.3063 143.697 32.9585 145.028 32.9585C146.36 32.9585 147.29 33.3246 148.001 34.0203C148.713 34.716 149.059 35.7779 149.059 37.1327V40.8675L148.457 38.7255C149.005 36.9313 150.117 35.5033 151.777 34.4414C153.437 33.3796 155.352 32.8486 157.486 32.8486C159.821 32.8486 161.882 33.4162 163.67 34.5513C165.458 35.6864 166.826 37.2975 167.792 39.3846C168.759 41.4717 169.233 43.9615 169.233 46.8542C169.233 49.7468 168.741 52.255 167.756 54.3787C166.771 56.5024 165.403 58.1135 163.652 59.2303C161.901 60.3471 159.839 60.9147 157.468 60.9147C155.352 60.9147 153.474 60.402 151.832 59.3768C150.19 58.3515 149.096 57.0151 148.549 55.3674H149.151V66.5169C149.151 67.9083 148.804 68.9518 148.093 69.6475C147.381 70.3432 146.342 70.6911 144.992 70.6911H145.028ZM155.042 54.7632C156.21 54.7632 157.231 54.4703 158.125 53.921C159.019 53.3535 159.712 52.4747 160.204 51.303C160.697 50.1313 160.952 48.6484 160.952 46.8542C160.952 44.1812 160.405 42.204 159.311 40.959C158.216 39.6958 156.793 39.055 155.042 39.055C153.875 39.055 152.835 39.3296 151.941 39.8789C151.048 40.4281 150.354 41.2886 149.862 42.4603C149.369 43.632 149.132 45.0966 149.132 46.8542C149.132 49.5638 149.68 51.5593 150.774 52.8409C151.868 54.1224 153.291 54.7632 155.042 54.7632Z" fill="#4BA9A9"/>
<path d="M183.442 60.9142C181.4 60.9142 179.612 60.5297 178.08 59.7974C176.548 59.0468 175.344 58.0215 174.468 56.7217C173.593 55.4218 173.155 53.9389 173.155 52.2545C173.155 50.2773 173.666 48.7211 174.687 47.586C175.709 46.4509 177.35 45.6271 179.63 45.1144C181.91 44.6018 184.938 44.3455 188.732 44.3455H191.632V48.6296H188.787C186.89 48.6296 185.376 48.7394 184.263 48.9408C183.151 49.1422 182.348 49.49 181.837 49.9843C181.327 50.4787 181.071 51.1194 181.071 51.925C181.071 52.9136 181.418 53.7375 182.129 54.3966C182.841 55.0556 183.862 55.3852 185.175 55.3852C186.233 55.3852 187.182 55.1472 188.021 54.6712C188.86 54.1952 189.517 53.5361 189.991 52.6939C190.465 51.8518 190.702 50.8448 190.702 49.6731V43.4118C190.702 41.8007 190.337 40.6656 189.608 39.9699C188.878 39.2742 187.62 38.9447 185.832 38.9447C184.883 38.9447 183.844 39.0545 182.695 39.2742C181.545 39.4939 180.269 39.8967 178.882 40.4825C178.043 40.8121 177.332 40.8853 176.73 40.7022C176.128 40.5192 175.654 40.1713 175.326 39.6404C174.997 39.1095 174.833 38.5236 174.833 37.8645C174.833 37.2054 175.015 36.583 175.38 35.9971C175.745 35.4113 176.365 34.9719 177.241 34.6789C178.919 34.0199 180.506 33.5622 182.02 33.2875C183.534 33.0129 184.902 32.8848 186.142 32.8848C188.951 32.8848 191.286 33.2875 193.128 34.1114C194.97 34.9353 196.338 36.1985 197.232 37.9194C198.126 39.6404 198.564 41.819 198.564 44.4554V56.6484C198.564 58.0032 198.217 59.0468 197.561 59.7608C196.886 60.4748 195.955 60.8226 194.752 60.8226C193.548 60.8226 192.544 60.4565 191.87 59.7608C191.195 59.0468 190.866 58.0032 190.866 56.6484V54.6162L191.249 55.0007C191.03 56.209 190.556 57.2526 189.845 58.1314C189.133 59.0101 188.24 59.6875 187.164 60.1819C186.087 60.6762 184.829 60.9142 183.406 60.9142H183.442Z" fill="#4BA9A9"/>
<path d="M209.052 60.8048C207.666 60.8048 206.608 60.4386 205.878 59.7429C205.149 59.0289 204.784 57.9854 204.784 56.6306V37.1327C204.784 35.7779 205.13 34.7343 205.842 34.0203C206.553 33.3063 207.575 32.9585 208.888 32.9585C210.201 32.9585 211.15 33.3246 211.843 34.0203C212.536 34.716 212.882 35.7779 212.882 37.1327V39.9887H212.335C212.737 37.7918 213.703 36.0891 215.217 34.8808C216.731 33.6725 218.683 32.9951 221.091 32.8486C221.966 32.7754 222.659 32.9951 223.134 33.5443C223.608 34.0936 223.9 34.954 223.973 36.199C224.009 37.2974 223.754 38.1762 223.243 38.8353C222.714 39.4944 221.82 39.8972 220.58 40.0436L219.321 40.1535C217.242 40.3366 215.692 40.9407 214.688 41.966C213.685 42.9912 213.174 44.4741 213.174 46.4148V56.6306C213.174 57.9854 212.828 59.0289 212.135 59.7429C211.441 60.4569 210.402 60.8048 209.016 60.8048H209.052Z" fill="#4BA9A9"/>
<path d="M242.104 60.915C239.586 60.915 237.471 60.5122 235.792 59.6884C234.114 58.8645 232.837 57.6562 232.053 56.0268C231.251 54.4157 230.849 52.3835 230.849 49.9303V39.5497H228.442C227.457 39.5497 226.69 39.2934 226.107 38.7624C225.541 38.2315 225.268 37.4626 225.268 36.4739C225.268 35.4853 225.56 34.7347 226.107 34.2221C226.672 33.7094 227.457 33.4531 228.442 33.4531H230.849V29.224C230.849 27.8326 231.196 26.7891 231.907 26.0934C232.619 25.3977 233.64 25.0498 234.953 25.0498C236.267 25.0498 237.325 25.3977 238.036 26.0934C238.747 26.7891 239.094 27.8326 239.094 29.224V33.4531H244.183C245.241 33.4531 246.043 33.7094 246.591 34.2221C247.138 34.7347 247.412 35.4853 247.412 36.4739C247.412 37.4626 247.138 38.2315 246.591 38.7624C246.043 39.2934 245.241 39.5497 244.183 39.5497H239.094V49.6007C239.094 51.1386 239.44 52.292 240.134 53.0426C240.827 53.7932 241.958 54.1777 243.526 54.1777C244.074 54.1777 244.603 54.1228 245.095 54.0129C245.587 53.9031 246.007 53.8481 246.317 53.8481C246.828 53.8115 247.247 53.958 247.612 54.3058C247.977 54.6537 248.141 55.4043 248.141 56.5943C248.141 57.5097 247.995 58.297 247.722 58.956C247.448 59.6151 246.937 60.0728 246.171 60.3291C245.697 60.4756 245.04 60.6038 244.201 60.7319C243.362 60.8601 242.669 60.915 242.122 60.915H242.104Z" fill="#4BA9A9"/>
<path d="M255.948 28.5095C254.452 28.5095 253.303 28.1434 252.501 27.4111C251.698 26.6787 251.297 25.6352 251.297 24.2804C251.297 22.9256 251.698 21.9553 252.501 21.223C253.303 20.509 254.452 20.1611 255.948 20.1611C257.444 20.1611 258.648 20.5273 259.468 21.223C260.289 21.937 260.691 22.9622 260.691 24.2804C260.691 25.5986 260.289 26.6787 259.468 27.4111C258.648 28.1434 257.48 28.5095 255.948 28.5095ZM255.948 60.8047C254.671 60.8047 253.668 60.4202 252.938 59.633C252.209 58.8457 251.844 57.729 251.844 56.3009V37.4621C251.844 35.9975 252.209 34.8807 252.938 34.1301C253.668 33.3794 254.671 33.0133 255.948 33.0133C257.298 33.0133 258.319 33.3977 259.049 34.1301C259.76 34.8807 260.107 35.9975 260.107 37.4621V56.3009C260.107 57.729 259.76 58.8274 259.067 59.633C258.374 60.4202 257.334 60.8047 255.948 60.8047Z" fill="#4BA9A9"/>
<path d="M276.195 60.9149C272.948 60.9149 270.522 60.0178 268.917 58.2237C267.312 56.4295 266.509 53.7382 266.509 50.1499V25.3793C266.509 23.9879 266.874 22.9443 267.604 22.2486C268.333 21.5529 269.336 21.2051 270.613 21.2051C271.963 21.2051 272.985 21.5529 273.714 22.2486C274.444 22.9443 274.772 23.9879 274.772 25.3793V49.8203C274.772 51.3216 275.082 52.4201 275.721 53.1524C276.359 53.8664 277.216 54.2142 278.274 54.2142C278.566 54.2142 278.858 54.2142 279.113 54.1593C279.387 54.1227 279.642 54.0861 279.898 54.0495C280.481 54.0128 280.883 54.2142 281.138 54.6353C281.375 55.0564 281.503 55.9169 281.503 57.1801C281.503 58.242 281.284 59.0658 280.846 59.6517C280.408 60.2375 279.733 60.6037 278.821 60.7502C278.493 60.7868 278.092 60.8234 277.618 60.86C277.143 60.8966 276.669 60.9149 276.195 60.9149Z" fill="#4BA9A9"/>
<path d="M288.835 60.8051C287.559 60.8051 286.555 60.4389 285.826 59.7432C285.096 59.0475 284.731 57.9857 284.731 56.6309V25.3793C284.731 23.9879 285.096 22.9443 285.826 22.2486C286.555 21.5529 287.559 21.2051 288.835 21.2051C290.185 21.2051 291.207 21.5529 291.936 22.2486C292.648 22.9443 292.994 23.9879 292.994 25.3793V38.5061H292.228C293.031 36.6753 294.271 35.2655 295.949 34.3135C297.627 33.3432 299.506 32.8672 301.585 32.8672C303.774 32.8672 305.544 33.27 306.912 34.0755C308.28 34.8811 309.319 36.126 310.012 37.8103C310.706 39.4947 311.052 41.6367 311.052 44.2364V56.6492C311.052 58.004 310.706 59.0475 310.012 59.7615C309.319 60.4755 308.298 60.8234 306.948 60.8234C305.671 60.8234 304.65 60.4572 303.902 59.7615C303.154 59.0475 302.789 58.004 302.789 56.6492V44.566C302.789 42.6986 302.443 41.3621 301.768 40.5199C301.093 39.6778 300.09 39.2933 298.722 39.2933C296.971 39.2933 295.584 39.8425 294.545 40.941C293.505 42.0395 292.976 43.5041 292.976 45.3349V56.6492C292.976 59.432 291.59 60.8234 288.817 60.8234L288.835 60.8051Z" fill="#4BA9A9"/>
<path d="M326.429 60.9142C324.386 60.9142 322.598 60.5297 321.066 59.7974C319.534 59.0468 318.33 58.0215 317.455 56.7217C316.579 55.4218 316.141 53.9389 316.141 52.2545C316.141 50.2773 316.652 48.7211 317.674 47.586C318.695 46.4509 320.337 45.6271 322.617 45.1144C324.897 44.6018 327.943 44.3455 331.737 44.3455H334.637V48.6296H331.792C329.895 48.6296 328.381 48.7394 327.286 48.9408C326.174 49.1422 325.371 49.49 324.86 49.9843C324.35 50.4787 324.094 51.1194 324.094 51.925C324.094 52.9136 324.441 53.7375 325.152 54.3966C325.863 55.0556 326.885 55.3852 328.198 55.3852C329.256 55.3852 330.205 55.1472 331.044 54.6712C331.883 54.1952 332.539 53.5361 333.014 52.6939C333.488 51.8518 333.725 50.8448 333.725 49.6731V43.4118C333.725 41.8007 333.36 40.6656 332.631 39.9699C331.901 39.2925 330.642 38.9447 328.855 38.9447C327.906 38.9447 326.848 39.0545 325.718 39.2742C324.568 39.4939 323.292 39.8967 321.905 40.4825C321.066 40.8121 320.337 40.8853 319.753 40.7022C319.151 40.5192 318.695 40.1713 318.367 39.6404C318.038 39.1095 317.874 38.5236 317.874 37.8645C317.874 37.2054 318.057 36.583 318.421 35.9971C318.786 35.4113 319.406 34.9719 320.282 34.6789C321.96 34.0199 323.547 33.5622 325.061 33.2875C326.575 33.0129 327.961 32.8848 329.201 32.8848C332.01 32.8848 334.327 33.2875 336.188 34.1114C338.03 34.9353 339.398 36.1985 340.292 37.9194C341.185 39.6404 341.641 41.819 341.641 44.4554V56.6484C341.641 58.0032 341.295 59.0468 340.62 59.7608C339.945 60.4748 339.015 60.8226 337.811 60.8226C336.607 60.8226 335.604 60.4565 334.929 59.7608C334.254 59.0651 333.926 58.0032 333.926 56.6484V54.6162L334.309 55.0007C334.09 56.209 333.616 57.2526 332.923 58.1314C332.211 59.0101 331.317 59.6875 330.241 60.1819C329.165 60.6762 327.906 60.9142 326.502 60.9142H326.429Z" fill="#4BA9A9"/>
<path d="M351.874 60.805C350.597 60.805 349.594 60.4389 348.865 59.7432C348.135 59.0475 347.77 57.9856 347.77 56.6308V37.1329C347.77 35.7781 348.135 34.7346 348.846 34.0206C349.558 33.3066 350.561 32.9587 351.874 32.9587C353.188 32.9587 354.136 33.3249 354.829 34.0206C355.522 34.7163 355.869 35.7781 355.869 37.1329V40.2636L355.267 38.506C356.07 36.6752 357.31 35.2655 358.988 34.3135C360.666 33.3432 362.545 32.8672 364.624 32.8672C366.813 32.8672 368.582 33.27 369.95 34.0938C371.318 34.9177 372.358 36.1626 373.051 37.8469C373.744 39.5313 374.091 41.655 374.091 44.2181V56.6308C374.091 57.9856 373.744 59.0292 373.051 59.7432C372.358 60.4572 371.337 60.805 369.987 60.805C368.71 60.805 367.707 60.4389 366.959 59.7432C366.211 59.0292 365.828 57.9856 365.828 56.6308V44.5476C365.828 42.6802 365.482 41.3437 364.825 40.5016C364.15 39.6777 363.129 39.275 361.779 39.275C360.028 39.275 358.641 39.8242 357.602 40.9227C356.562 42.0211 356.051 43.4858 356.051 45.3166V56.6308C356.051 59.4137 354.665 60.805 351.892 60.805H351.874Z" fill="#4BA9A9"/>
<path d="M390.781 60.9149C388.446 60.9149 386.385 60.3657 384.616 59.2306C382.846 58.1138 381.478 56.5027 380.475 54.379C379.49 52.2553 378.998 49.7471 378.998 46.8545C378.998 43.9618 379.49 41.4719 380.475 39.3848C381.46 37.2977 382.828 35.6866 384.616 34.5515C386.385 33.4165 388.428 32.8489 390.781 32.8489C392.897 32.8489 394.776 33.3615 396.417 34.3868C398.059 35.412 399.153 36.7485 399.701 38.3962H399.099V25.3793C399.099 23.9879 399.445 22.9443 400.138 22.2486C400.831 21.5529 401.853 21.2051 403.203 21.2051C404.552 21.2051 405.537 21.5529 406.267 22.2486C406.997 22.9443 407.361 23.9879 407.361 25.3793V56.6309C407.361 57.9857 406.997 59.0292 406.304 59.7432C405.61 60.4572 404.607 60.8051 403.312 60.8051C401.962 60.8051 400.941 60.4389 400.229 59.7432C399.518 59.0475 399.172 57.9857 399.172 56.6309V52.8961L399.773 55.0381C399.263 56.8323 398.168 58.2603 396.508 59.3221C394.849 60.384 392.933 60.9149 390.799 60.9149H390.781ZM393.243 54.7635C394.447 54.7635 395.487 54.4705 396.363 53.9213C397.238 53.3538 397.931 52.475 398.442 51.3033C398.953 50.1316 399.208 48.6486 399.208 46.8545C399.208 44.1815 398.661 42.2042 397.566 40.9593C396.472 39.6961 395.031 39.0553 393.243 39.0553C392.076 39.0553 391.036 39.3299 390.143 39.8791C389.249 40.4284 388.556 41.2889 388.063 42.4606C387.571 43.6323 387.315 45.0969 387.315 46.8545C387.315 49.564 387.862 51.5596 388.957 52.8411C390.051 54.1227 391.474 54.7635 393.225 54.7635H393.243Z" fill="#4BA9A9"/>
<path d="M426.623 60.9147C423.741 60.9147 421.242 60.3471 419.127 59.212C417.011 58.0769 415.369 56.4658 414.183 54.3421C412.998 52.2367 412.414 49.7468 412.414 46.8542C412.414 44.6938 412.742 42.7532 413.399 41.0323C414.056 39.3113 415.004 37.8284 416.281 36.6018C417.54 35.3751 419.054 34.4414 420.823 33.8006C422.592 33.1599 424.526 32.8486 426.642 32.8486C429.524 32.8486 432.041 33.4162 434.157 34.5513C436.291 35.6864 437.951 37.2975 439.136 39.4212C440.322 41.5266 440.924 43.9981 440.924 46.8542C440.924 49.0145 440.595 50.9735 439.921 52.731C439.246 54.4886 438.279 55.9715 437.039 57.1798C435.798 58.3882 434.303 59.3219 432.551 59.9626C430.8 60.6034 428.83 60.9147 426.642 60.9147H426.623ZM426.623 54.7632C427.827 54.7632 428.867 54.4703 429.742 53.921C430.618 53.3535 431.311 52.4747 431.822 51.303C432.333 50.1313 432.588 48.6484 432.588 46.8542C432.588 44.1812 432.041 42.204 430.946 40.959C429.852 39.6958 428.411 39.055 426.623 39.055C425.456 39.055 424.416 39.3296 423.541 39.8789C422.647 40.4281 421.954 41.2886 421.461 42.4603C420.969 43.632 420.732 45.0966 420.732 46.8542C420.732 49.5637 421.279 51.5593 422.373 52.8409C423.468 54.1224 424.89 54.7632 426.642 54.7632H426.623Z" fill="#4BA9A9"/>
<path d="M34.3821 115.838C32.3391 115.838 30.5516 115.453 29.0194 114.721C27.4872 113.97 26.2833 112.945 25.4078 111.645C24.5323 110.346 24.0945 108.863 24.0945 107.178C24.0945 105.201 24.6052 103.645 25.6267 102.51C26.6481 101.375 28.2898 100.551 30.5698 100.038C32.8499 99.5255 35.896 99.2692 39.69 99.2692H42.5902V103.553H39.7447C37.8477 103.553 36.3338 103.663 35.2394 103.865C34.1267 104.066 33.3059 104.414 32.7951 104.908C32.2844 105.402 32.0291 106.043 32.0291 106.849C32.0291 107.837 32.3939 108.661 33.1052 109.32C33.8166 109.979 34.8381 110.309 36.1331 110.309C37.1911 110.309 38.1396 110.071 38.9786 109.595C39.8177 109.119 40.4743 108.46 40.9486 107.618C41.4228 106.775 41.66 105.769 41.66 104.597V98.3355C41.66 96.7244 41.2952 95.5893 40.5656 94.8936C39.8359 94.2162 38.5773 93.8684 36.7898 93.8684C35.8413 93.8684 34.8016 93.9782 33.6524 94.1979C32.5033 94.4176 31.2265 94.8204 29.8584 95.4063C29.0194 95.7358 28.2898 95.809 27.6878 95.6259C27.0859 95.4429 26.6299 95.095 26.3016 94.5641C25.9732 94.0332 25.8091 93.4473 25.8091 92.7882C25.8091 92.1291 25.9915 91.5067 26.3563 90.9208C26.7211 90.335 27.3413 89.8956 28.2168 89.6026C29.8949 88.9436 31.4818 88.4859 32.9958 88.2112C34.5097 87.9366 35.8778 87.8085 37.1364 87.8085C39.9454 87.8085 42.2619 88.2112 44.1042 89.0351C45.9465 89.859 47.3145 91.1222 48.2083 92.8431C49.1021 94.5641 49.5581 96.7427 49.5581 99.3791V111.572C49.5581 112.927 49.2297 113.97 48.5366 114.684C47.8617 115.398 46.9314 115.746 45.7276 115.746C44.5237 115.746 43.5205 115.38 42.8638 114.684C42.1889 113.97 41.8606 112.927 41.8606 111.572V109.54L42.2437 109.924C42.0248 111.133 41.5505 112.176 40.8574 113.055C40.146 113.934 39.2522 114.611 38.1761 115.106C37.0999 115.6 35.8413 115.838 34.4368 115.838H34.3821Z" fill="#4BA9A9"/>
<path d="M77.2287 115.728C75.879 115.728 74.8392 115.362 74.1279 114.667C73.4165 113.971 73.0699 112.909 73.0699 111.554V94.4729H71.1C70.0785 94.4729 69.2942 94.2166 68.747 93.6857C68.1998 93.1548 67.9261 92.3858 67.9261 91.3972C67.9261 90.4086 68.1998 89.6579 68.747 89.1453C69.2942 88.6327 70.0785 88.3764 71.1 88.3764H75.4777L73.0699 90.5733V88.8158C73.0699 84.9345 74.0549 82.0235 76.0249 80.0463C77.9948 78.0873 80.8586 76.9156 84.6161 76.5129L86.3672 76.403C87.3157 76.2932 88.0635 76.4213 88.6107 76.7875C89.158 77.1536 89.541 77.6296 89.7599 78.2155C89.9788 78.8014 90.0153 79.4055 89.8876 80.0097C89.7599 80.6138 89.5045 81.1448 89.1032 81.6025C88.7019 82.0602 88.1912 82.2982 87.571 82.3348L86.8049 82.3897C84.835 82.5362 83.4305 82.9939 82.5914 83.7811C81.7524 84.5683 81.3328 85.7584 81.3328 87.3328V89.2552L80.3478 88.3764H85.2728C86.2942 88.3764 87.0786 88.6327 87.6258 89.1453C88.173 89.6579 88.4466 90.4086 88.4466 91.3972C88.4466 92.3858 88.173 93.1548 87.6258 93.6857C87.0786 94.2166 86.2942 94.4729 85.2728 94.4729H81.3328V111.554C81.3328 114.337 79.9648 115.728 77.2287 115.728Z" fill="#4BA9A9"/>
<path d="M105.191 115.838C102.017 115.838 99.2996 115.271 97.0195 114.136C94.7395 113.001 92.9884 111.389 91.7663 109.266C90.5442 107.16 89.9423 104.67 89.9423 101.778C89.9423 98.8851 90.526 96.5783 91.7116 94.5095C92.8972 92.4407 94.5206 90.793 96.6182 89.5847C98.6976 88.3764 101.051 87.7722 103.677 87.7722C105.684 87.7722 107.453 88.0835 109.022 88.7242C110.572 89.365 111.904 90.2804 113.053 91.4704C114.184 92.6604 115.041 94.1068 115.625 95.8094C116.208 97.512 116.5 99.3977 116.5 101.503C116.5 102.199 116.281 102.73 115.844 103.059C115.406 103.407 114.767 103.59 113.928 103.59H96.8006V99.3062H110.536L109.66 100.075C109.66 98.5739 109.441 97.3289 109.003 96.3037C108.566 95.2968 107.946 94.5278 107.106 93.9969C106.286 93.466 105.282 93.2097 104.06 93.2097C102.711 93.2097 101.561 93.5209 100.613 94.1434C99.6644 94.7658 98.9348 95.6629 98.424 96.8712C97.9133 98.0613 97.6579 99.471 97.6579 101.119V101.558C97.6579 104.341 98.2964 106.391 99.5732 107.71C100.85 109.028 102.783 109.687 105.374 109.687C106.249 109.687 107.252 109.577 108.365 109.357C109.478 109.138 110.536 108.79 111.557 108.314C112.433 107.911 113.181 107.783 113.801 107.929C114.421 108.076 114.913 108.387 115.296 108.845C115.679 109.302 115.898 109.833 115.935 110.456C115.971 111.078 115.825 111.682 115.515 112.287C115.205 112.891 114.676 113.403 113.965 113.806C112.688 114.538 111.265 115.069 109.697 115.362C108.128 115.673 106.632 115.82 105.209 115.82L105.191 115.838Z" fill="#4BA9A9"/>
<path d="M130.965 115.839C127.718 115.839 125.292 114.942 123.687 113.147C122.082 111.353 121.279 108.662 121.279 105.074V80.303C121.279 78.9116 121.644 77.868 122.374 77.1723C123.103 76.4766 124.107 76.1288 125.383 76.1288C126.733 76.1288 127.755 76.4766 128.484 77.1723C129.214 77.868 129.542 78.9116 129.542 80.303V104.744C129.542 106.245 129.852 107.344 130.491 108.076C131.129 108.79 131.986 109.138 133.044 109.138C133.336 109.138 133.628 109.138 133.883 109.083C134.157 109.046 134.412 109.01 134.668 108.973C135.251 108.937 135.653 109.138 135.908 109.559C136.145 109.98 136.273 110.841 136.273 112.104C136.273 113.166 136.054 113.99 135.616 114.575C135.178 115.161 134.504 115.527 133.592 115.674C133.263 115.71 132.862 115.747 132.388 115.784C131.913 115.82 131.439 115.839 130.965 115.839Z" fill="#4BA9A9"/>
<path d="M143.606 83.4332C142.11 83.4332 140.961 83.0671 140.158 82.3348C139.356 81.6025 138.954 80.5589 138.954 79.2041C138.954 77.8493 139.356 76.879 140.158 76.1467C140.961 75.4327 142.11 75.0848 143.606 75.0848C145.101 75.0848 146.305 75.451 147.126 76.1467C147.947 76.8607 148.348 77.8859 148.348 79.2041C148.348 80.5223 147.947 81.6025 147.126 82.3348C146.305 83.0671 145.138 83.4332 143.606 83.4332ZM143.606 115.728C142.329 115.728 141.325 115.344 140.596 114.557C139.866 113.769 139.501 112.653 139.501 111.225V92.3858C139.501 90.9212 139.866 89.8044 140.596 89.0538C141.325 88.3031 142.329 87.937 143.606 87.937C144.955 87.937 145.977 88.3215 146.706 89.0538C147.418 89.8044 147.764 90.9212 147.764 92.3858V111.225C147.764 112.653 147.418 113.751 146.725 114.557C146.031 115.344 144.992 115.728 143.606 115.728Z" fill="#4BA9A9"/>
<path d="M167.245 115.839C164.327 115.839 161.791 115.271 159.639 114.136C157.486 113.001 155.808 111.371 154.641 109.248C153.455 107.124 152.853 104.616 152.853 101.723C152.853 99.5629 153.182 97.6222 153.838 95.9013C154.495 94.1804 155.444 92.7157 156.702 91.5074C157.961 90.2991 159.493 89.3837 161.28 88.7429C163.068 88.1021 165.056 87.7909 167.245 87.7909C168.376 87.7909 169.598 87.9191 170.893 88.1937C172.188 88.4683 173.465 88.926 174.687 89.5485C175.38 89.9512 175.855 90.4455 176.128 91.0314C176.402 91.6172 176.511 92.2397 176.438 92.8622C176.365 93.503 176.128 94.0705 175.745 94.5648C175.362 95.0591 174.87 95.3887 174.286 95.5534C173.702 95.7182 173.045 95.6267 172.316 95.2422C171.623 94.8761 170.893 94.6014 170.145 94.4C169.397 94.1987 168.704 94.0888 168.029 94.0888C166.935 94.0888 165.968 94.2719 165.129 94.6197C164.29 94.9676 163.597 95.4619 163.013 96.1027C162.43 96.7435 162.01 97.549 161.7 98.4827C161.39 99.4347 161.244 100.515 161.244 101.723C161.244 104.14 161.828 106.062 163.013 107.472C164.199 108.882 165.859 109.577 168.029 109.577C168.686 109.577 169.379 109.486 170.109 109.303C170.838 109.12 171.568 108.827 172.298 108.424C173.027 108.058 173.666 107.966 174.231 108.149C174.797 108.332 175.271 108.662 175.654 109.156C176.037 109.651 176.256 110.218 176.292 110.859C176.329 111.5 176.219 112.122 175.927 112.69C175.654 113.275 175.161 113.733 174.486 114.063C173.283 114.722 172.061 115.18 170.784 115.436C169.525 115.692 168.339 115.82 167.209 115.82L167.245 115.839Z" fill="#4BA9A9"/>
<path d="M184.427 83.4332C182.932 83.4332 181.783 83.0671 180.98 82.3348C180.177 81.6025 179.776 80.5589 179.776 79.2041C179.776 77.8493 180.177 76.879 180.98 76.1467C181.783 75.4327 182.932 75.0848 184.427 75.0848C185.923 75.0848 187.145 75.451 187.966 76.1467C188.787 76.8607 189.188 77.8859 189.188 79.2041C189.188 80.5223 188.769 81.6025 187.966 82.3348C187.145 83.0671 185.96 83.4332 184.427 83.4332ZM184.427 115.728C183.151 115.728 182.147 115.344 181.418 114.557C180.688 113.769 180.323 112.653 180.323 111.225V92.3858C180.323 90.9212 180.688 89.8044 181.418 89.0538C182.147 88.3031 183.151 87.937 184.427 87.937C185.777 87.937 186.799 88.3215 187.528 89.0538C188.24 89.8044 188.586 90.9212 188.586 92.3858V111.225C188.586 112.653 188.24 113.751 187.547 114.557C186.853 115.344 185.814 115.728 184.427 115.728Z" fill="#4BA9A9"/>
<path d="M205.44 115.839C203.106 115.839 201.063 115.289 199.275 114.154C197.506 113.038 196.138 111.426 195.153 109.303C194.168 107.179 193.675 104.671 193.675 101.778C193.675 98.8855 194.168 96.3956 195.153 94.3085C196.138 92.2214 197.506 90.6103 199.275 89.4752C201.044 88.3402 203.106 87.7726 205.44 87.7726C207.556 87.7726 209.435 88.2852 211.077 89.3105C212.718 90.3357 213.813 91.6722 214.36 93.3199H213.758V80.303C213.758 78.9116 214.105 77.868 214.798 77.1723C215.491 76.4766 216.512 76.1288 217.862 76.1288C219.212 76.1288 220.197 76.4766 220.926 77.1723C221.656 77.868 222.021 78.9116 222.021 80.303V111.555C222.021 112.909 221.674 113.953 220.963 114.667C220.252 115.381 219.248 115.729 217.972 115.729C216.622 115.729 215.6 115.363 214.889 114.667C214.178 113.953 213.813 112.909 213.813 111.555V107.82L214.415 109.962C213.904 111.756 212.81 113.184 211.15 114.246C209.49 115.308 207.575 115.839 205.44 115.839ZM207.903 109.687C209.107 109.687 210.146 109.394 211.022 108.845C211.898 108.277 212.591 107.399 213.101 106.227C213.612 105.055 213.867 103.572 213.867 101.778C213.867 99.1052 213.32 97.1279 212.226 95.883C211.131 94.6198 209.69 93.979 207.903 93.979C206.735 93.979 205.696 94.2536 204.82 94.8028C203.926 95.3521 203.233 96.2126 202.741 97.3843C202.248 98.556 201.993 100.021 201.993 101.778C201.993 104.488 202.54 106.483 203.635 107.765C204.729 109.046 206.152 109.687 207.903 109.687Z" fill="#4BA9A9"/>
<path d="M237.507 115.838C235.464 115.838 233.677 115.453 232.144 114.721C230.612 113.97 229.408 112.945 228.533 111.645C227.657 110.346 227.219 108.863 227.219 107.178C227.219 105.201 227.73 103.645 228.752 102.51C229.773 101.375 231.415 100.551 233.695 100.038C235.975 99.5255 239.021 99.2692 242.815 99.2692H245.715V103.553H242.87C240.973 103.553 239.459 103.663 238.364 103.865C237.252 104.066 236.449 104.414 235.938 104.908C235.428 105.402 235.172 106.043 235.172 106.849C235.172 107.837 235.519 108.661 236.23 109.32C236.942 109.979 237.963 110.309 239.276 110.309C240.334 110.309 241.283 110.071 242.122 109.595C242.961 109.119 243.618 108.46 244.092 107.618C244.566 106.775 244.803 105.769 244.803 104.597V98.3355C244.803 96.7244 244.438 95.5893 243.709 94.8936C242.979 94.2162 241.721 93.8684 239.933 93.8684C238.984 93.8684 237.927 93.9782 236.796 94.1979C235.646 94.4176 234.37 94.8204 232.983 95.4063C232.144 95.7358 231.415 95.809 230.831 95.6259C230.229 95.4429 229.773 95.095 229.445 94.5641C229.116 94.0332 228.952 93.4473 228.952 92.7882C228.952 92.1291 229.135 91.5067 229.499 90.9208C229.864 90.335 230.484 89.8956 231.36 89.6026C233.038 88.9436 234.625 88.4859 236.139 88.2112C237.653 87.9366 239.039 87.8085 240.28 87.8085C243.089 87.8085 245.405 88.2112 247.266 89.0351C249.108 89.859 250.476 91.1222 251.37 92.8431C252.263 94.5641 252.719 96.7427 252.719 99.3791V111.572C252.719 112.927 252.373 113.97 251.698 114.684C251.023 115.398 250.093 115.746 248.889 115.746C247.685 115.746 246.682 115.38 246.007 114.684C245.332 113.989 245.004 112.927 245.004 111.572V109.54L245.387 109.924C245.168 111.133 244.694 112.176 244.001 113.055C243.289 113.934 242.395 114.611 241.319 115.106C240.243 115.6 238.984 115.838 237.58 115.838H237.507Z" fill="#4BA9A9"/>
<path d="M269.3 115.839C266.965 115.839 264.922 115.289 263.135 114.154C261.365 113.038 259.997 111.426 259.012 109.303C258.027 107.179 257.535 104.671 257.535 101.778C257.535 98.8855 258.027 96.3956 259.012 94.3085C259.997 92.2214 261.365 90.6103 263.135 89.4752C264.904 88.3402 266.965 87.7726 269.3 87.7726C271.416 87.7726 273.295 88.2852 274.936 89.3105C276.578 90.3357 277.672 91.6722 278.22 93.3199H277.618V80.303C277.618 78.9116 277.964 77.868 278.657 77.1723C279.35 76.4766 280.372 76.1288 281.722 76.1288C283.071 76.1288 284.056 76.4766 284.786 77.1723C285.516 77.868 285.88 78.9116 285.88 80.303V111.555C285.88 112.909 285.534 113.953 284.823 114.667C284.111 115.381 283.108 115.729 281.831 115.729C280.481 115.729 279.46 115.363 278.748 114.667C278.037 113.953 277.672 112.909 277.672 111.555V107.82L278.274 109.962C277.764 111.756 276.669 113.184 275.009 114.246C273.349 115.308 271.434 115.839 269.3 115.839ZM271.762 109.687C272.966 109.687 274.006 109.394 274.882 108.845C275.757 108.277 276.45 107.399 276.961 106.227C277.472 105.055 277.727 103.572 277.727 101.778C277.727 99.1052 277.18 97.1279 276.085 95.883C274.991 94.6198 273.55 93.979 271.762 93.979C270.595 93.979 269.555 94.2536 268.68 94.8028C267.786 95.3521 267.093 96.2126 266.6 97.3843C266.108 98.556 265.853 100.021 265.853 101.778C265.853 104.488 266.4 106.483 267.494 107.765C268.589 109.046 270.011 109.687 271.762 109.687Z" fill="#4BA9A9"/>
<path d="M306.182 115.838C303.008 115.838 300.272 115.271 297.992 114.136C295.712 113.001 293.961 111.389 292.739 109.266C291.517 107.16 290.915 104.67 290.915 101.778C290.915 98.8851 291.498 96.5783 292.684 94.5095C293.87 92.4407 295.493 90.793 297.591 89.5847C299.67 88.3764 302.023 87.7722 304.65 87.7722C306.656 87.7722 308.444 88.0835 309.994 88.7242C311.545 89.365 312.876 90.2804 314.025 91.4704C315.156 92.6604 316.014 94.1068 316.597 95.8094C317.181 97.512 317.473 99.3977 317.473 101.503C317.473 102.199 317.254 102.73 316.816 103.059C316.378 103.407 315.74 103.59 314.901 103.59H297.773V99.3062H311.508L310.633 100.075C310.633 98.5739 310.414 97.3289 309.976 96.3037C309.538 95.2968 308.918 94.5278 308.079 93.9969C307.258 93.466 306.255 93.2097 305.051 93.2097C303.701 93.2097 302.552 93.5209 301.604 94.1434C300.655 94.7658 299.926 95.6629 299.415 96.8712C298.904 98.0613 298.649 99.471 298.649 101.119V101.558C298.649 104.341 299.287 106.391 300.564 107.71C301.841 109.028 303.774 109.687 306.364 109.687C307.24 109.687 308.225 109.577 309.356 109.357C310.468 109.138 311.526 108.79 312.548 108.314C313.423 107.911 314.171 107.783 314.791 107.929C315.412 108.076 315.922 108.387 316.287 108.845C316.67 109.302 316.889 109.833 316.926 110.456C316.962 111.078 316.834 111.682 316.524 112.287C316.214 112.891 315.685 113.403 314.956 113.806C313.679 114.538 312.256 115.069 310.687 115.362C309.119 115.673 307.623 115.82 306.2 115.82L306.182 115.838Z" fill="#4BA9A9"/>
</g>
<defs>
<filter id="filter0_d_29_102" x="0" y="0" width="465" height="144" filterUnits="userSpaceOnUse" color-interpolation-filters="sRGB">
<feFlood flood-opacity="0" result="BackgroundImageFix"/>
<feColorMatrix in="SourceAlpha" type="matrix" values="0 0 0 0 0 0 0 0 0 0 0 0 0 0 0 0 0 0 127 0" result="hardAlpha"/>
<feOffset dy="4"/>
<feGaussianBlur stdDeviation="3"/>
<feComposite in2="hardAlpha" operator="out"/>
<feColorMatrix type="matrix" values="0 0 0 0 0 0 0 0 0 0 0 0 0 0 0 0 0 0 0.15 0"/>
<feBlend mode="normal" in2="BackgroundImageFix" result="effect1_dropShadow_29_102"/>
<feBlend mode="normal" in="SourceGraphic" in2="effect1_dropShadow_29_102" result="shape"/>
</filter>
<clipPath id="clip0_29_102">
<rect width="453" height="132" fill="white" transform="translate(6 2)"/>
</clipPath>
</defs>
</svg>
