<svg width="36" height="33" viewBox="0 0 36 33" fill="none" xmlns="http://www.w3.org/2000/svg">
<path id="Vector" d="M17.9938 0C16.5741 0 15.4259 1.13331 15.4259 2.53471V3.96049C9.5987 4.87445 5.14187 9.85857 5.14187 15.8663V18.5107C5.14187 22.1178 3.89495 25.6152 1.62332 28.418L0.425783 29.9047C-0.0433565 30.4775 -0.129777 31.2574 0.191213 31.9154C0.512204 32.5735 1.19122 33 1.93197 33H34.068C34.8088 33 35.4878 32.5735 35.8088 31.9154C36.1298 31.2574 36.0434 30.4775 35.5742 29.9047L34.3767 28.4302C32.1051 25.6152 30.8581 22.1178 30.8581 18.5107V15.8663C30.8581 9.85857 26.4013 4.87445 20.5741 3.96049V2.53471C20.5741 1.13331 19.4259 0 18.0062 0L17.9938 0Z" fill="#4AA5A5"/>
</svg>
