<svg width="36" height="40" viewBox="0 0 36 40" fill="none" xmlns="http://www.w3.org/2000/svg">
<g id="pictograma calend&#195;&#161;rio 1" clip-path="url(#clip0_1_2027)">
<g id="Camada 1">
<path id="Vector" d="M35.9816 9.58445C35.9745 6.83461 34.1699 4.7825 31.4358 4.33039C31.3116 4.30987 31.2567 4.29662 31.063 4.28764H27.6618V1.29326C27.6618 0.579081 27.0786 0 26.3594 0C25.6402 0 25.057 0.579081 25.057 1.29326V4.28764H23.9161C23.8985 4.28764 23.881 4.28764 23.8634 4.28764C20.1496 4.26883 16.4359 4.26904 12.7223 4.28764H10.9356V1.29326C10.9356 0.579081 10.3524 0 9.63323 0C8.91403 0 8.33087 0.579081 8.33087 1.29326V4.28764H5.57547C5.53392 4.28913 5.49195 4.29063 5.44868 4.29234C2.06298 4.41525 0.000728717 6.54261 0.000513451 9.91471C8.29188e-05 18.0511 -0.000562879 26.1876 0.000943982 34.3238C0.00158978 37.8953 2.10538 39.9998 5.66438 39.9987C9.7794 39.9974 13.8942 39.9985 18.009 39.9985C22.2267 39.9985 26.4444 40.0028 30.6623 39.9972C33.6924 39.9932 35.9665 37.8305 35.9781 34.8107C36.0106 26.4022 36.0031 17.9932 35.9818 9.58466L35.9816 9.58445ZM33.4361 28.5858C33.4408 29.0746 33.249 29.2337 32.7649 29.2232C31.5663 29.1969 30.3668 29.2146 29.1675 29.2144C28.037 29.2142 26.9057 29.1926 25.7758 29.2238C25.2635 29.2379 25.0428 29.1229 25.0545 28.5548C25.0893 26.8547 25.0846 25.1534 25.0562 23.4531C25.0478 22.9518 25.231 22.8078 25.7052 22.8105C28.0693 22.8242 30.4333 22.824 32.7974 22.8108C33.2929 22.808 33.4438 23.0093 33.438 23.4839C33.4175 25.1844 33.4197 26.8853 33.4358 28.586L33.4361 28.5858ZM33.4361 19.6317C33.4414 20.1141 33.2414 20.2993 32.7679 20.2976C30.4042 20.289 28.0406 20.2879 25.6772 20.2976C25.1698 20.2997 25.0534 20.0543 25.0594 19.5988C25.0794 18.1026 25.0874 16.6057 25.056 15.1102C25.0454 14.6036 25.2333 14.4717 25.7059 14.4807C26.9042 14.5033 28.1035 14.4881 29.3025 14.4879C30.4329 14.4879 31.5637 14.5025 32.6936 14.4809C33.1818 14.4717 33.4552 14.5576 33.4416 15.1429C33.4068 16.6384 33.4195 18.1354 33.4363 19.6315L33.4361 19.6317ZM10.2891 37.4981C8.47769 37.4793 6.66515 37.5197 4.85433 37.4785C3.56876 37.4492 2.61449 36.5099 2.53269 35.213C2.47306 34.2665 2.52644 33.3133 2.51051 32.3634C2.50169 31.8437 2.72686 31.6083 3.2506 31.6633C3.2844 31.6669 3.31884 31.6635 3.35306 31.6635C4.51529 31.6635 5.67751 31.6635 6.83994 31.6635C7.96794 31.6635 9.09658 31.6844 10.2239 31.6545C10.7634 31.6402 10.9416 31.8428 10.9339 32.3644C10.9115 33.8573 10.9115 35.3511 10.9341 36.844C10.9414 37.3246 10.7782 37.5033 10.2891 37.4983V37.4981ZM10.1454 29.2296C8.98571 29.1742 7.82134 29.2142 6.6589 29.2142C5.56492 29.2142 4.46986 29.1871 3.37717 29.2251C2.78842 29.2456 2.48963 29.1159 2.50233 28.4549C2.53355 26.8263 2.53053 25.1966 2.50298 23.5677C2.49308 22.9837 2.7232 22.8031 3.28655 22.8078C5.6112 22.8272 7.93608 22.8304 10.2607 22.8063C10.8239 22.8005 10.9429 23.0267 10.9352 23.5309C10.9104 25.1598 10.9033 26.7895 10.938 28.4179C10.9509 29.0195 10.8054 29.261 10.1454 29.2296ZM10.9313 19.6911C10.9354 20.1283 10.7571 20.2988 10.3257 20.2976C7.93263 20.2896 5.53952 20.2882 3.14641 20.2956C2.6401 20.2971 2.50836 20.0276 2.51051 19.587C2.51826 18.0937 2.52235 16.6001 2.50879 15.1068C2.50427 14.6098 2.73977 14.4743 3.20152 14.4819C4.39775 14.5016 5.59463 14.4886 6.79108 14.4884C7.95351 14.4884 9.11616 14.5046 10.2782 14.4802C10.7528 14.4704 10.9433 14.6098 10.9349 15.1093C10.9091 16.6362 10.9169 18.164 10.9313 19.6913V19.6911ZM22.5031 32.5878C22.4586 33.9456 22.4663 35.3066 22.501 36.6649C22.516 37.2589 22.3701 37.5144 21.7092 37.5058C19.2108 37.4733 16.7118 37.4819 14.2132 37.5011C13.64 37.5056 13.4243 37.3092 13.4366 36.7301C13.4665 35.3034 13.4673 33.8753 13.4381 32.4486C13.4249 31.8089 13.6949 31.6344 14.3008 31.6524C15.532 31.6887 16.765 31.6633 17.9972 31.6633C19.1951 31.6633 20.395 31.7026 21.5906 31.6487C22.3316 31.6154 22.5257 31.8969 22.5031 32.588V32.5878ZM13.4417 15.1948C13.4357 14.6908 13.5926 14.473 14.145 14.4779C16.7105 14.501 19.2763 14.4965 21.8418 14.4807C22.3214 14.4777 22.5057 14.6273 22.4977 15.1205C22.4736 16.6144 22.4715 18.1093 22.4986 19.603C22.5087 20.1556 22.2678 20.3072 21.7624 20.3003C20.4968 20.283 19.2311 20.2946 17.9653 20.2948C16.7338 20.2948 15.5016 20.2704 14.2711 20.3053C13.6413 20.323 13.4247 20.0885 13.4376 19.4737C13.4676 18.0479 13.4585 16.6211 13.4417 15.1948ZM22.4982 28.5377C22.5059 29.08 22.2982 29.236 21.7738 29.2238C20.4749 29.1941 19.1751 29.214 17.8756 29.2142C16.6444 29.2142 15.4129 29.1924 14.1824 29.2247C13.6531 29.2386 13.4389 29.0616 13.443 28.5353C13.4566 26.8378 13.4572 25.1403 13.443 23.4429C13.4387 22.9407 13.6845 22.8099 14.1385 22.8116C16.7032 22.8212 19.2681 22.8223 21.8328 22.8108C22.2952 22.8086 22.5057 22.9407 22.4986 23.4454C22.4743 25.1427 22.4741 26.8406 22.4984 28.5377H22.4982ZM17.9862 11.992C13.2232 11.992 8.45982 11.9658 3.69728 12.0139C2.72621 12.0237 2.51999 11.7077 2.48533 10.7946C2.36715 7.69244 3.13263 6.78416 6.46775 6.82628C14.4505 6.92696 22.4355 6.85834 30.4195 6.8592C32.6607 6.85941 33.4274 7.62724 33.4302 9.86704C33.4321 11.2839 32.7044 11.9923 31.247 11.9923C26.8267 11.9923 22.4063 11.9923 17.986 11.9923L17.9862 11.992ZM33.4412 32.4457C33.3969 33.3278 33.4582 34.2152 33.4223 35.0982C33.3618 36.5798 32.428 37.4701 30.9179 37.4879C29.2392 37.5075 27.5597 37.4725 25.8813 37.5028C25.2818 37.5137 25.0286 37.3718 25.0519 36.7123C25.102 35.2853 25.0895 33.855 25.0562 32.4271C25.0428 31.858 25.2166 31.6368 25.8079 31.6539C26.9718 31.6874 28.1375 31.6637 29.3025 31.6637C30.3991 31.6637 31.4963 31.6906 32.5916 31.6528C33.196 31.6319 33.4742 31.7939 33.4414 32.4459L33.4412 32.4457Z" fill="#4AA5A5"/>
</g>
</g>
<defs>
<clipPath id="clip0_1_2027">
<rect width="36" height="40" fill="white"/>
</clipPath>
</defs>
</svg>
