<svg width="77" height="64" viewBox="0 0 77 64" fill="none" xmlns="http://www.w3.org/2000/svg">
<g clip-path="url(#clip0_1_1944)">
<path d="M17.8055 21.6199C18.2329 20.9789 18.6377 20.3562 19.0587 19.7438C20.4525 17.7158 21.9868 15.8032 23.7566 14.0855C24.241 13.6152 25.0376 13.4884 25.6442 13.7894C25.9925 13.9621 26.0623 14.2394 25.809 14.5335C25.6244 14.7477 25.4122 14.9377 25.2118 15.138C23.5711 16.7841 22.158 18.6134 20.8815 20.5477C20.1928 21.5913 19.5268 22.6507 18.8861 23.724C18.6204 24.1691 18.2488 24.3674 17.7708 24.4306C17.608 24.4518 17.4398 24.4493 17.2756 24.435C16.9441 24.4054 16.6962 24.2574 16.527 23.949C15.7838 22.595 15.0263 21.2484 14.2737 19.8993C14.0892 19.5687 14.1332 19.3175 14.4519 19.1088C14.9308 18.7949 15.4592 18.717 16.0139 18.8596C16.2237 18.9134 16.3696 19.051 16.4755 19.2445C16.8807 19.9841 17.2939 20.7194 17.704 21.4561C17.7317 21.5064 17.7634 21.5543 17.8045 21.6209L17.8055 21.6199Z" fill="#4AA5A5"/>
<path d="M25.9589 20.8566C25.949 25.0721 22.5518 28.4349 18.3096 28.4285C14.1431 28.4226 10.7811 25.003 10.789 20.7791C10.7964 16.6573 14.2322 13.2787 18.3992 13.295C22.5785 13.3113 25.9683 16.7017 25.9589 20.8561V20.8566ZM12.0591 20.8521C12.0636 24.3363 14.8764 27.1598 18.3482 27.1648C21.8735 27.1692 24.6907 24.3576 24.6907 20.8348C24.6907 17.357 21.8433 14.5552 18.3151 14.5607C14.8774 14.5661 12.0551 17.4049 12.0591 20.8521Z" fill="#4AA5A5"/>
<path d="M65.6132 19.6284H32.4454C31.9311 19.6284 31.5142 20.0442 31.5142 20.5571V21.167C31.5142 21.6799 31.9311 22.0956 32.4454 22.0956H65.6132C66.1275 22.0956 66.5444 21.6799 66.5444 21.167V20.5571C66.5444 20.0442 66.1275 19.6284 65.6132 19.6284Z" fill="#4AA5A5"/>
<path d="M25.9589 43.1327C25.949 47.3482 22.5518 50.711 18.3096 50.7046C14.1431 50.6987 10.7811 47.2791 10.789 43.0552C10.7964 38.9334 14.2322 35.5548 18.3992 35.5711C22.5785 35.5874 25.9683 38.9779 25.9589 43.1322V43.1327ZM12.0591 43.1282C12.0636 46.6125 14.8764 49.436 18.3482 49.4409C21.8735 49.4453 24.6907 46.6337 24.6907 43.111C24.6907 39.6332 21.8433 36.8314 18.3151 36.8368C14.8774 36.8422 12.0551 39.681 12.0591 43.1282Z" fill="#4AA5A5"/>
<path d="M65.6132 41.9045H32.4454C31.9311 41.9045 31.5142 42.3203 31.5142 42.8332V43.4431C31.5142 43.956 31.9311 44.3718 32.4454 44.3718H65.6132C66.1275 44.3718 66.5444 43.956 66.5444 43.4431V42.8332C66.5444 42.3203 66.1275 41.9045 65.6132 41.9045Z" fill="#4AA5A5"/>
<path d="M75.2059 64H2.12744C1.44416 64 0.890503 63.4478 0.890503 62.7664V1.23362C0.890503 0.552167 1.44416 0 2.12744 0H75.2059C75.8892 0 76.4429 0.552167 76.4429 1.23362V62.7664C76.4429 63.4478 75.8892 64 75.2059 64ZM3.36438 61.5328H73.969V2.46723H3.36438V61.5328Z" fill="#4AA5A5"/>
</g>
<defs>
<clipPath id="clip0_1_1944">
<rect width="75.5524" height="64" fill="white" transform="translate(0.890503)"/>
</clipPath>
</defs>
</svg>
