<svg width="18" height="18" viewBox="0 0 18 18" fill="none" xmlns="http://www.w3.org/2000/svg">
<g id="Alta Fideli.">
<path id="Vector" d="M9.65034 17.6692V11.7212H12.2603V9.13982H9.64034C9.64034 8.94351 9.64034 8.76684 9.64034 8.59998C9.64034 8.23682 9.64034 7.87366 9.64034 7.5105C9.64034 6.91177 10.0103 6.55842 10.6103 6.54861C11.0903 6.54861 11.5703 6.54861 12.0503 6.54861C12.1203 6.54861 12.1803 6.54861 12.2603 6.54861C12.2603 6.49953 12.2603 6.46027 12.2603 6.42101C12.2603 5.61617 12.2603 4.81132 12.2603 4.01629C12.2403 3.99666 12.2303 3.98685 12.2103 3.98685C11.3503 3.98685 10.5003 3.96722 9.64034 4.02611C8.31034 4.13407 7.13034 5.33153 7.03034 6.63695C6.99034 7.14734 7.00034 7.65772 6.99034 8.16811C6.99034 8.4822 6.99034 8.79629 6.99034 9.13982H5.26034V11.7212H6.97034V17.5514C2.98034 16.7957 -0.459659 12.9874 0.0503412 8.16811C0.550341 3.47646 4.91034 0.0509565 9.75034 0.590792C14.4903 1.111 17.8703 5.22356 17.5003 9.81707C17.1103 14.5971 13.0403 17.4827 9.64034 17.679L9.65034 17.6692Z" fill="#4D4D4D"/>
</g>
</svg>
