<svg width="94" height="64" viewBox="0 0 94 64" fill="none" xmlns="http://www.w3.org/2000/svg">
<g id="Camada_5" clip-path="url(#clip0_1_1982)">
<path id="Vector" d="M90.8735 27.3796C89.6763 27.5707 88.6628 27.1693 87.8163 26.1946M90.8735 27.3796C92.817 27.061 94.1869 24.7993 93.7525 22.6076C93.3293 20.4669 91.6754 19.1671 89.7654 19.473L87.8163 26.1946M90.8735 27.3796L90.7947 26.8858C90.7944 26.8859 90.794 26.886 90.7937 26.886M90.8735 27.3796L90.7927 26.8862C90.793 26.8861 90.7933 26.8861 90.7937 26.886M87.8163 26.1946C87.7161 26.0799 87.6548 26.0862 87.5379 26.15L87.8163 26.1946ZM90.7937 26.886C89.7843 27.0468 88.9385 26.7243 88.1939 25.8667L88.1928 25.8655C88.1187 25.7807 87.972 25.6347 87.7393 25.6085C87.5297 25.5849 87.3628 25.6759 87.3014 25.7094L87.2987 25.7109L87.2986 25.7108L87.2888 25.7164C84.7494 27.1755 82.2105 28.6342 79.6716 30.0866L79.9199 30.5206M90.7937 26.886C92.4 26.622 93.6535 24.6798 93.2621 22.7048L93.262 22.7046C92.8803 20.7738 91.4376 19.7116 89.8444 19.9667L89.8439 19.9668C88.3256 20.2082 87.0941 21.9963 87.3646 23.8875L87.3656 23.8945L87.3656 23.8945C87.3843 24.0405 87.39 24.2335 87.299 24.4252C87.2054 24.6224 87.049 24.7364 86.9196 24.8083M79.9199 30.5206L86.6747 24.3724M79.9199 30.5206L79.6716 30.0866C79.5802 30.1389 79.4468 30.2305 79.3604 30.3973C79.2786 30.5553 79.2738 30.7136 79.2814 30.8282C79.2973 31.2265 79.2972 31.6248 79.2811 32.0231L79.2807 32.0332V32.0433L79.2807 32.0485C79.2807 32.1147 79.2806 32.2562 79.3371 32.3981C79.4081 32.5761 79.5361 32.6896 79.6661 32.764C82.2042 34.216 84.7424 35.6743 87.2811 37.1329L87.2832 37.1342L87.284 37.1346C87.3684 37.1829 87.5433 37.2733 87.7644 37.2383C87.9824 37.2037 88.1231 37.0666 88.1949 36.9887L88.1951 36.9888L88.203 36.9798C88.6471 36.4745 89.1117 36.1605 89.5865 36.013C90.057 35.8668 90.5738 35.8726 91.1481 36.0658C92.2527 36.4385 92.9685 37.2989 93.2515 38.6737C93.6584 40.6747 92.4306 42.604 90.8011 42.8846C90.7398 42.895 90.6875 42.9135 90.6513 42.9286H90.0008C89.972 42.9168 89.9311 42.9023 89.8813 42.8928L89.8776 42.8922C88.2743 42.5989 87.1151 40.9074 87.3652 38.9395C87.3841 38.8035 87.3918 38.62 87.3064 38.4346C87.2188 38.2445 87.0709 38.1337 86.9583 38.0646L86.9514 38.0604L86.9445 38.0564C84.4294 36.6241 81.9198 35.1789 79.4089 33.733C79.2955 33.6661 79.1 33.5748 78.8617 33.6286C78.6422 33.6782 78.5031 33.8283 78.4353 33.9059L78.4353 33.9059L78.4329 33.9087C77.6243 34.8475 76.5236 35.0777 75.5536 34.7698C74.5774 34.46 73.705 33.5926 73.4261 32.2654L73.4261 32.2654C73.3307 31.8115 73.3118 31.3806 73.3558 30.9834L73.3785 30.7787M79.9199 30.5206L73.3785 30.7787M86.9196 24.8083C86.9203 24.8079 86.921 24.8075 86.9218 24.8071L86.6747 24.3724M86.9196 24.8083C86.9187 24.8088 86.9178 24.8093 86.9169 24.8098L86.6747 24.3724M86.9196 24.8083C84.411 26.2339 81.9076 27.6723 79.4037 29.1174M86.6747 24.3724C84.1633 25.7995 81.6574 27.2394 79.1514 28.6857M79.4037 29.1174C79.4046 29.1168 79.4056 29.1163 79.4066 29.1157L79.1514 28.6857M79.4037 29.1174C79.2903 29.1843 79.0946 29.2758 78.8562 29.222C78.6366 29.1724 78.4975 29.0222 78.4297 28.9446L78.428 28.9427C77.5239 27.8973 76.3551 27.7536 75.3594 28.1773C74.395 28.5877 73.585 29.5387 73.3785 30.7787M79.4037 29.1174C79.4029 29.1179 79.4021 29.1183 79.4014 29.1187L79.1514 28.6857M79.1514 28.6857C79.0011 28.7749 78.9231 28.7494 78.8062 28.6156L73.3785 30.7787" fill="#4AA5A5" stroke="#4AA5A5"/>
<g id="Group">
<path id="Vector_2" d="M15.0793 23.8998L15.0866 23.9082L15.2726 23.8926C15.3432 23.957 15.4371 24.055 15.558 24.1925C15.6899 24.3425 15.8335 24.5158 15.994 24.7094C16.0073 24.7254 16.0207 24.7416 16.0343 24.758C16.2074 24.9667 16.3965 25.194 16.5921 25.4149C18.4597 27.5457 20.3262 29.6784 22.193 31.8113C26.8613 37.1452 31.5308 42.4806 36.2203 47.7919C36.8255 48.4778 37.302 49.0753 37.5279 49.688C37.7315 50.2398 37.7425 50.8338 37.3019 51.5883C36.8964 52.2804 36.5043 52.4319 36.1765 52.437C35.7698 52.4435 35.2346 52.2293 34.5862 51.7562L34.5856 51.7557C34.182 51.4619 33.7629 51.3003 33.3313 51.2602C32.9069 51.2207 32.5188 51.3033 32.1805 51.4237C31.8482 51.5418 31.5357 51.7072 31.2678 51.8535C31.221 51.8791 31.1756 51.904 31.1314 51.9283C30.907 52.0515 30.7132 52.158 30.5153 52.2466L30.5153 52.2466L30.5109 52.2486C25.9563 54.3239 21.3969 56.3883 16.8361 58.4534C13.9544 59.7582 11.0721 61.0632 8.19007 62.3715C8.06414 62.4283 7.9421 62.4841 7.82347 62.5384C7.06378 62.8859 6.44411 63.1694 5.83967 63.2363C5.51978 63.2717 5.23128 63.2396 4.95275 63.121C4.67117 63.0011 4.35279 62.7726 4.00675 62.3446L4.00511 62.3426C3.41017 61.6118 3.27802 60.9144 3.3522 60.1805C3.4225 59.4851 3.67138 58.7834 3.95966 57.9706C4.00012 57.8565 4.04137 57.7403 4.083 57.6215L4.08313 57.6211C5.44691 53.7241 6.8026 49.8226 8.15797 45.9221L8.15805 45.9219C9.51354 42.021 10.8687 38.121 12.2319 34.2257C12.3503 33.888 12.4839 33.5443 12.6205 33.1929C13.403 31.1804 14.2826 28.9181 12.9497 26.1121C12.6851 25.5529 12.7649 25.0912 13.0773 24.7321C13.3913 24.3711 14.0255 24.0207 15.0793 23.8998Z" stroke="#4AA5A5" stroke-width="1.5"/>
<path id="Vector_3" d="M58.9665 4.1384V3.98346C58.9665 3.82215 58.9701 3.67487 58.9734 3.53772C58.9815 3.20234 58.9881 2.92748 58.9378 2.65601C58.8812 2.35017 58.7766 2.20202 58.5463 2.10712L58.9665 4.1384ZM58.9665 4.1384C58.904 5.03667 58.5521 5.49505 58.1754 5.74437C57.7348 6.03599 57.1301 6.12563 56.5471 6.05642L56.547 6.05641C55.0011 5.87296 53.6145 5.99829 52.7187 6.94719C51.8434 7.87444 51.6716 9.34963 51.8509 11.1964L58.9665 4.1384ZM47.43 16.9553L47.432 16.9553C49.2004 17.0096 50.3347 16.4635 51.0127 15.5663C51.7155 14.6362 52.0428 13.18 51.851 11.1967L47.43 16.9553ZM47.43 16.9553C46.5368 16.9301 45.7205 17.0992 45.2115 17.7802C44.7556 18.3902 44.7006 19.235 44.7205 20.0724L44.7205 20.0729M47.43 16.9553L44.7205 20.0729M44.7205 20.0729C44.7622 21.7733 44.394 22.9653 43.75 23.7577C43.1147 24.5395 42.1229 25.04 40.6834 25.1822M44.7205 20.0729L34.124 30.8837M34.124 30.8837L34.1252 30.8822C34.4301 30.4791 34.7206 30.0564 35.0237 29.6152C35.1242 29.469 35.2261 29.3208 35.3304 29.1705C35.741 28.5787 36.1803 27.9689 36.672 27.4146C37.6629 26.2977 38.9134 25.3543 40.6834 25.1822M34.124 30.8837C33.4289 31.8076 33.0628 31.9114 32.8918 31.9046C32.7915 31.9007 32.6371 31.8586 32.3977 31.6956C32.1558 31.531 31.8736 31.2749 31.5263 30.9097L31.5256 30.9089M34.124 30.8837L31.5256 30.9089M40.6834 25.1822C40.6836 25.1822 40.6838 25.1822 40.684 25.1822L40.7564 25.9287L40.6828 25.1823C40.683 25.1823 40.6832 25.1823 40.6834 25.1822ZM31.5256 30.9089C30.8474 30.1977 30.6401 29.767 30.6248 29.4482C30.6108 29.1548 30.7533 28.7353 31.4294 28.0246C32.1155 27.3055 32.745 26.5132 33.3487 25.7534L33.3671 25.7303C33.9846 24.9531 34.576 24.2103 35.2104 23.5485C36.4679 22.2368 37.8259 21.3159 39.6895 21.2072C40.2511 21.1755 40.7501 21.0124 41.1046 20.6378C41.4553 20.2673 41.5493 19.8103 41.5678 19.4455C41.5852 19.102 41.5388 18.7418 41.5032 18.4658C41.5017 18.4543 41.5002 18.443 41.4988 18.4319C41.4577 18.1125 41.4353 17.908 41.4476 17.757L41.4478 17.7544M31.5256 30.9089L41.4478 17.7544M41.4478 17.7544C41.5738 16.1468 41.9931 14.9878 42.6354 14.2438C43.2545 13.5265 44.1535 13.1104 45.4548 13.1224C46.3688 13.1315 47.2802 13.0476 47.9059 12.4102C48.5153 11.7896 48.6656 10.8319 48.6897 9.69912L48.6897 9.69871M41.4478 17.7544L48.6897 9.69871M48.6897 9.69871C48.7633 6.14947 49.9018 3.71163 51.5904 2.43657M48.6897 9.69871L51.5904 2.43657M51.5904 2.43657C53.2572 1.17789 55.6444 0.915512 58.5461 2.10705L51.5904 2.43657Z" stroke="#4AA5A5" stroke-width="1.5"/>
<path id="Vector_4" d="M27.1537 21.9523C27.1522 21.8764 27.1507 21.8005 27.1491 21.7247C27.1077 19.6672 27.0672 17.652 27.2335 15.6561L27.2336 15.6555C27.4218 13.3731 27.187 11.465 26.1787 10.2112C25.1193 8.89393 23.4095 8.52467 21.2458 8.83993L21.244 8.8402C20.3352 8.97492 19.5962 8.85964 19.0397 8.52132C18.495 8.1902 18.0198 7.5815 17.7541 6.51038L17.7539 6.5097C17.3568 4.91489 17.6269 3.53863 18.6577 2.9569L18.6584 2.95654C21.2332 1.50011 24.0616 1.7282 26.8148 2.77529L26.8162 2.77585C29.0254 3.6108 30.2924 5.72023 30.4511 8.66786C30.7102 13.5193 29.4527 17.8699 27.1537 21.9523Z" stroke="#4AA5A5" stroke-width="1.5"/>
<path id="Vector_5" d="M51.0354 32.1105C52.2849 32.1936 53.3552 32.5849 54.2057 33.2573C55.0553 33.9289 55.7262 34.9131 56.1263 36.2491L56.1263 36.2491C57.0771 39.4237 57.2696 42.7363 55.9706 45.7606L55.9698 45.7624C55.6932 46.4112 55.2783 46.7266 54.813 46.8685C54.3153 47.0203 53.6947 46.9906 53.0354 46.8036L53.0353 46.8035C51.9771 46.5034 51.2153 45.6997 51.0836 44.3326L51.0832 44.329C50.983 43.3379 50.9989 42.3336 51.0155 41.2821C51.018 41.125 51.0205 40.9668 51.0226 40.8075L51.0226 40.8059C51.0397 39.3014 50.7332 38.051 49.9405 37.187C49.1332 36.3071 47.9634 35.9789 46.604 36.0092L46.6034 36.0092C44.4151 36.0594 42.224 36.0476 40.0233 36.0358C39.7826 36.0345 39.5418 36.0332 39.3009 36.032C42.9208 33.299 46.7643 31.8267 51.0354 32.1105ZM51.0354 32.1105L51.0852 31.3622L51.0354 32.1105Z" stroke="#4AA5A5" stroke-width="1.5"/>
<path id="Vector_6" d="M38.0382 4.02369L38.023 4.00369L38.0161 3.99589C37.5332 3.35529 37.4145 3.00266 37.4189 2.74467C37.4234 2.48424 37.5566 2.1337 38.0718 1.50204C38.8531 0.543992 40.2413 0.514384 41.064 1.5067C41.6048 2.15904 41.7436 2.52237 41.7451 2.78869C41.7465 3.05255 41.6138 3.42052 41.0642 4.08264C40.2209 5.09867 38.8389 5.07156 38.0382 4.02369Z" stroke="#4AA5A5" stroke-width="1.5"/>
<path id="Vector_7" d="M6.47578 9.14144L6.47581 9.14142L6.4718 9.13601C6.21348 8.78697 6.11641 8.51569 6.11206 8.31204C6.10445 7.73633 6.44478 6.96769 7.02021 6.31114C7.61172 5.63623 8.24549 5.30917 8.63131 5.31166V5.31168H8.63614C8.69213 5.31168 8.87255 5.35332 9.17148 5.55514C9.44956 5.74288 9.75486 6.01853 10.0413 6.34485C10.3269 6.67017 10.5763 7.02602 10.7528 7.36174C10.9357 7.70956 11.0106 7.97927 11.0157 8.14581L11.0157 8.14811C11.0256 8.44035 10.9353 8.73973 10.7334 9.08145L10.6718 9.18575C9.65591 10.694 7.60552 10.6969 6.47578 9.14144Z" stroke="#4AA5A5" stroke-width="1.5"/>
<path id="Vector_8" d="M6.01093 24.5865C6.01412 24.3936 5.93852 24.1239 5.61203 23.6654L6.01093 24.5865ZM6.01093 24.5865C6.00773 24.7802 5.92266 25.0471 5.58439 25.4946L6.01093 24.5865ZM5.58433 25.4947C4.62856 26.7588 2.90748 26.7345 1.98491 25.4318C1.66141 24.9723 1.58447 24.7013 1.58723 24.5063C1.58998 24.3123 1.67377 24.0457 2.01072 23.5999L5.58433 25.4947ZM2.01079 23.5998C2.96567 22.3369 4.6806 22.3581 5.61194 23.6652L2.01079 23.5998Z" stroke="#4AA5A5" stroke-width="1.5"/>
<path id="Vector_9" d="M54.7809 25.8612L54.7806 25.8608C54.2234 25.1495 54.0854 24.7665 54.0894 24.4883C54.0935 24.2122 54.2404 23.8416 54.8122 23.1627L54.813 23.1617C55.5951 22.2296 56.8579 22.2281 57.6563 23.1646C58.2653 23.8866 58.416 24.2687 58.4165 24.5441C58.417 24.8179 58.2691 25.1994 57.6567 25.9205L57.6557 25.9216C56.8523 26.8715 55.5573 26.8537 54.7809 25.8612Z" stroke="#4AA5A5" stroke-width="1.5"/>
<path id="Vector_10" d="M47.9141 52.8457L48.018 52.9649C48.7332 53.7854 48.9037 54.1946 48.9023 54.4841C48.9008 54.773 48.7268 55.177 48.0074 55.984L48.0071 55.9843C47.2732 56.8087 46.1063 56.7999 45.3785 55.9563L45.3775 55.9551C44.6714 55.1404 44.4999 54.7299 44.5009 54.4376C44.5018 54.1478 44.6738 53.7432 45.3866 52.9436L45.387 52.9433C46.0893 52.1543 47.1784 52.1216 47.9141 52.8457Z" stroke="#4AA5A5" stroke-width="1.5"/>
</g>
</g>
<defs>
<clipPath id="clip0_1_1982">
<rect width="93" height="64" fill="white" transform="translate(0.833252)"/>
</clipPath>
</defs>
</svg>
