<svg width="18" height="18" viewBox="0 0 18 18" fill="none" xmlns="http://www.w3.org/2000/svg">
<g id="Alta Fideli.">
<g id="Group">
<path id="Vector" d="M8.7708 0.51495C10.0708 0.51495 11.3708 0.49532 12.6708 0.51495C14.5808 0.544396 16.4608 1.84982 17.1508 3.60673C17.3808 4.20546 17.5308 4.814 17.5208 5.45199C17.5208 7.95486 17.5408 10.4577 17.5108 12.9508C17.4908 14.2464 16.9508 15.3457 16.0208 16.2585C15.1708 17.083 14.1508 17.5541 12.9608 17.6817C12.8008 17.7013 12.6508 17.7013 12.4908 17.7013C9.9608 17.7013 7.4308 17.721 4.9108 17.6915C3.3308 17.6719 2.0508 16.9848 1.0708 15.7776C0.3708 14.9138 0.0108 13.9029 0.0108 12.7839C0.0108 10.2811 -0.0192 7.77819 0.0208 5.28513C0.0408 3.75396 0.7608 2.52706 1.9708 1.57499C2.9008 0.838851 3.9808 0.51495 5.1708 0.51495C6.3708 0.51495 7.5708 0.51495 8.7708 0.51495ZM8.7708 16.0033C10.0008 16.0033 11.2408 16.0033 12.4708 16.0033C12.7108 16.0033 12.9508 15.9837 13.1908 15.9444C14.7308 15.6696 15.7908 14.4034 15.8008 12.8232C15.8008 10.3498 15.8008 7.87634 15.8008 5.40291C15.8008 4.59807 15.5508 3.88156 15.0008 3.27302C14.3408 2.54669 13.5008 2.22279 12.5108 2.22279C10.0208 2.22279 7.5208 2.22279 5.0308 2.22279C4.8108 2.22279 4.5908 2.24242 4.3808 2.27187C2.8308 2.53688 1.7608 3.81285 1.7508 5.40291C1.7508 7.87634 1.7508 10.3498 1.7508 12.8232C1.7508 13.6084 1.9908 14.3151 2.5208 14.9236C3.1808 15.6696 4.0408 16.0033 5.0308 16.0033C6.2808 16.0033 7.5208 16.0033 8.7708 16.0033Z" fill="#4D4D4D"/>
<path id="Vector_2" d="M8.7808 4.80432C11.1808 4.80432 13.1908 6.75754 13.1608 9.11319C13.1308 11.5768 11.2208 13.4221 8.7608 13.4122C6.2708 13.4024 4.3908 11.5179 4.4008 9.10337C4.4008 6.66921 6.3208 4.86321 8.7808 4.80432ZM8.7808 6.53179C7.3308 6.53179 6.1508 7.68999 6.1408 9.10337C6.1408 10.5266 7.3108 11.6848 8.7608 11.6946C10.2208 11.6946 11.4108 10.5364 11.4108 9.11319C11.4108 7.68999 10.2308 6.53179 8.7808 6.53179Z" fill="#4D4D4D"/>
<path id="Vector_3" d="M14.4808 4.58829C14.4808 5.15757 13.9808 5.66796 13.3908 5.67777C12.8108 5.67777 12.2908 5.18701 12.2808 4.60792C12.2808 4.03864 12.7808 3.52825 13.3708 3.51843C13.9508 3.51843 14.4708 4.00919 14.4808 4.58829Z" fill="#4D4D4D"/>
</g>
</g>
</svg>
