<svg width="22" height="24" viewBox="0 0 22 24" fill="none" xmlns="http://www.w3.org/2000/svg">
<path id="Vector" d="M11.0029 5.68659C7.88147 5.68659 5.36368 8.31941 5.36368 11.5835C5.36368 14.8476 7.88147 17.4804 11.0029 17.4804C14.1244 17.4804 16.6422 14.8476 16.6422 11.5835C16.6422 8.31941 14.1244 5.68659 11.0029 5.68659ZM11.0029 15.4173C8.98576 15.4173 7.33668 13.698 7.33668 11.5835C7.33668 9.46903 8.98086 7.74974 11.0029 7.74974C13.025 7.74974 14.6692 9.46903 14.6692 11.5835C14.6692 13.698 13.0201 15.4173 11.0029 15.4173ZM18.1882 5.44537C18.1882 6.21007 17.5993 6.82081 16.8729 6.82081C16.1416 6.82081 15.5575 6.20494 15.5575 5.44537C15.5575 4.68581 16.1465 4.06994 16.8729 4.06994C17.5993 4.06994 18.1882 4.68581 18.1882 5.44537ZM21.9232 6.84133C21.8398 4.99887 21.4373 3.36683 20.1465 2.02219C18.8606 0.677549 17.2999 0.256708 15.5379 0.164328C13.722 0.056552 8.27902 0.056552 6.46307 0.164328C4.70601 0.251576 3.14527 0.672417 1.85448 2.01706C0.563679 3.3617 0.166132 4.99374 0.0777889 6.8362C-0.0252786 8.73512 -0.0252786 14.4267 0.0777889 16.3257C0.161224 18.1681 0.563679 19.8002 1.85448 21.1448C3.14527 22.4894 4.7011 22.9103 6.46307 23.0027C8.27902 23.1104 13.722 23.1104 15.5379 23.0027C17.2999 22.9154 18.8606 22.4946 20.1465 21.1448C21.4324 19.8002 21.8348 18.1681 21.9232 16.3257C22.0263 14.4267 22.0263 8.74025 21.9232 6.84133ZM19.5772 18.3631C19.1944 19.3691 18.4532 20.144 17.4864 20.5495C16.0385 21.1499 12.6029 21.0114 11.0029 21.0114C9.40294 21.0114 5.96245 21.1448 4.51951 20.5495C3.55754 20.1492 2.81644 19.3742 2.42871 18.3631C1.85448 16.8491 1.98699 13.2566 1.98699 11.5835C1.98699 9.9104 1.85938 6.31272 2.42871 4.80385C2.81153 3.79793 3.55264 3.02297 4.51951 2.61752C5.96736 2.01706 9.40294 2.15563 11.0029 2.15563C12.6029 2.15563 16.0434 2.02219 17.4864 2.61752C18.4483 3.01784 19.1894 3.7928 19.5772 4.80385C20.1514 6.31785 20.0189 9.9104 20.0189 11.5835C20.0189 13.2566 20.1514 16.8543 19.5772 18.3631Z" fill="white"/>
</svg>
