<svg width="22" height="24" viewBox="0 0 22 24" fill="none" xmlns="http://www.w3.org/2000/svg">
<path id="Vector" d="M7.08555 1.1891C6.75469 0.353552 5.88242 -0.0911746 5.04883 0.146911L1.26758 1.22504C0.519922 1.44066 0 2.15043 0 2.95902C0 14.0727 8.61953 23.084 19.25 23.084C20.0234 23.084 20.7023 22.5405 20.9086 21.7588L21.9398 17.8057C22.1676 16.9342 21.7422 16.0223 20.943 15.6764L16.818 13.8795C16.1176 13.5741 15.3055 13.7852 14.8285 14.4006L13.0926 16.6153C10.0676 15.1194 7.61836 12.5588 6.1875 9.39633L8.30586 7.58597C8.89453 7.08285 9.09648 6.23832 8.8043 5.50609L7.08555 1.19359V1.1891Z" fill="white"/>
</svg>
