<svg width="18" height="14" viewBox="0 0 18 14" fill="none" xmlns="http://www.w3.org/2000/svg">
<g id="Alta Fideli.">
<path id="Vector" d="M5.16 10.9992C3.33 10.8912 2.18 9.63486 1.9 8.58463C2.4 8.66316 2.9 8.67297 3.44 8.51593C2.6 8.30981 1.92 7.9172 1.41 7.27921C0.9 6.65104 0.65 5.92472 0.64 5.09043C1.14 5.32599 1.64 5.47322 2.23 5.48304C1.31 4.84505 0.8 4.01076 0.69 2.97035C0.61 2.24403 0.74 1.53733 1.15 0.879715C3.06 3.08813 5.47 4.28558 8.41 4.4917C8.41 4.423 8.41 4.37392 8.41 4.33466C8.15 2.67589 8.9 1.25269 10.43 0.526368C11.66 -0.0429127 13.34 0.231912 14.3 1.16435C14.43 1.29195 14.55 1.3214 14.72 1.27232C15.33 1.11528 15.91 0.90916 16.46 0.614705C16.53 0.575444 16.6 0.545998 16.7 0.487107C16.44 1.30177 15.93 1.89068 15.22 2.38144C15.92 2.30292 16.53 2.10661 17.14 1.88086C16.74 2.46977 16.29 3.00961 15.71 3.42185C15.5 3.56908 15.43 3.72612 15.43 3.98131C15.44 5.88546 14.93 7.65219 13.93 9.28151C13.01 10.7734 11.8 11.9709 10.23 12.8052C8.97 13.4824 7.61 13.8554 6.18 13.9535C4.96 14.0419 3.76 13.9339 2.58 13.6002C1.67 13.345 0.81 12.9622 0 12.442C1.89 12.599 3.59 12.1475 5.13 10.9894L5.16 10.9992Z" fill="#4D4D4D"/>
</g>
</svg>
