<svg width="32" height="33" viewBox="0 0 32 33" fill="none" xmlns="http://www.w3.org/2000/svg">
<path id="Vector" d="M6.16 24.8983C7.52 23.8583 9.04 23.0383 10.72 22.4383C12.4 21.8383 14.16 21.5383 16 21.5383C17.84 21.5383 19.6 21.8383 21.28 22.4383C22.96 23.0383 24.48 23.8583 25.84 24.8983C26.7733 23.8049 27.5 22.5649 28.02 21.1783C28.54 19.7916 28.8 18.3116 28.8 16.7383C28.8 13.1916 27.5533 10.1716 25.06 7.67828C22.5667 5.18495 19.5467 3.93828 16 3.93828C12.4533 3.93828 9.43333 5.18495 6.94 7.67828C4.44667 10.1716 3.2 13.1916 3.2 16.7383C3.2 18.3116 3.46 19.7916 3.98 21.1783C4.5 22.5649 5.22667 23.8049 6.16 24.8983ZM16 18.3383C14.4267 18.3383 13.1 17.7983 12.02 16.7183C10.94 15.6383 10.4 14.3116 10.4 12.7383C10.4 11.1649 10.94 9.83828 12.02 8.75828C13.1 7.67828 14.4267 7.13828 16 7.13828C17.5733 7.13828 18.9 7.67828 19.98 8.75828C21.06 9.83828 21.6 11.1649 21.6 12.7383C21.6 14.3116 21.06 15.6383 19.98 16.7183C18.9 17.7983 17.5733 18.3383 16 18.3383ZM16 32.7383C13.7867 32.7383 11.7067 32.3183 9.76 31.4783C7.81333 30.6383 6.12 29.4983 4.68 28.0583C3.24 26.6183 2.1 24.9249 1.26 22.9783C0.42 21.0316 0 18.9516 0 16.7383C0 14.5249 0.42 12.4449 1.26 10.4983C2.1 8.55161 3.24 6.85828 4.68 5.41828C6.12 3.97828 7.81333 2.83828 9.76 1.99828C11.7067 1.15828 13.7867 0.738281 16 0.738281C18.2133 0.738281 20.2933 1.15828 22.24 1.99828C24.1867 2.83828 25.88 3.97828 27.32 5.41828C28.76 6.85828 29.9 8.55161 30.74 10.4983C31.58 12.4449 32 14.5249 32 16.7383C32 18.9516 31.58 21.0316 30.74 22.9783C29.9 24.9249 28.76 26.6183 27.32 28.0583C25.88 29.4983 24.1867 30.6383 22.24 31.4783C20.2933 32.3183 18.2133 32.7383 16 32.7383ZM16 29.5383C17.4133 29.5383 18.7467 29.3316 20 28.9183C21.2533 28.5049 22.4 27.9116 23.44 27.1383C22.4 26.3649 21.2533 25.7716 20 25.3583C18.7467 24.9449 17.4133 24.7383 16 24.7383C14.5867 24.7383 13.2533 24.9449 12 25.3583C10.7467 25.7716 9.6 26.3649 8.56 27.1383C9.6 27.9116 10.7467 28.5049 12 28.9183C13.2533 29.3316 14.5867 29.5383 16 29.5383ZM16 15.1383C16.6933 15.1383 17.2667 14.9116 17.72 14.4583C18.1733 14.0049 18.4 13.4316 18.4 12.7383C18.4 12.0449 18.1733 11.4716 17.72 11.0183C17.2667 10.5649 16.6933 10.3383 16 10.3383C15.3067 10.3383 14.7333 10.5649 14.28 11.0183C13.8267 11.4716 13.6 12.0449 13.6 12.7383C13.6 13.4316 13.8267 14.0049 14.28 14.4583C14.7333 14.9116 15.3067 15.1383 16 15.1383Z" fill="#4AA5A5"/>
</svg>
