<svg width="76" height="64" viewBox="0 0 76 64" fill="none" xmlns="http://www.w3.org/2000/svg">
<g id="pictograma site_2 1" clip-path="url(#clip0_1_1959)">
<g id="Camada 1">
<g id="Group">
<path id="Vector" d="M65.0829 7.48669H26.4729C26.2093 7.48669 25.9956 7.70037 25.9956 7.96395C25.9956 8.22753 26.2093 8.44121 26.4729 8.44121H65.0829C65.3464 8.44121 65.5601 8.22753 65.5601 7.96395C65.5601 7.70037 65.3464 7.48669 65.0829 7.48669Z" fill="#4AA5A5"/>
<path id="Vector_2" d="M71.4433 0H4.55682C2.3266 0 0.511597 1.815 0.511597 4.04522V59.9548C0.511597 62.1855 2.3266 64 4.55682 64H71.4433C73.674 64 75.4885 62.185 75.4885 59.9548V4.04522C75.4885 1.81453 73.6735 0 71.4433 0ZM71.4433 61.9001H4.55682C3.48395 61.9001 2.61152 61.0272 2.61152 59.9548V4.04522C2.61152 2.97235 3.48442 2.09993 4.55682 2.09993H71.4433C72.5161 2.09993 73.3885 2.97283 73.3885 4.04522V59.9548C73.3885 61.0276 72.5156 61.9001 71.4433 61.9001Z" fill="#4AA5A5"/>
<path id="Vector_3" d="M74.4385 14.0542H1.56152V15.0087H74.4385V14.0542Z" fill="#4AA5A5"/>
<path id="Vector_4" d="M32.6338 56.8951H7.2915V21.5781H32.6338V56.8951ZM8.24602 55.9405H31.6793V22.5326H8.24602V55.9405Z" fill="#4AA5A5"/>
<path id="Vector_5" d="M65.5601 22.0554H36.2566V22.8558H65.5601V22.0554Z" fill="#4AA5A5"/>
<path id="Vector_6" d="M65.5601 25.5198H36.2566V26.3201H65.5601V25.5198Z" fill="#4AA5A5"/>
<path id="Vector_7" d="M65.5601 28.9838H36.2566V29.7841H65.5601V28.9838Z" fill="#4AA5A5"/>
<path id="Vector_8" d="M65.5601 32.4476H36.2566V33.248H65.5601V32.4476Z" fill="#4AA5A5"/>
<path id="Vector_9" d="M62.1239 35.9116H36.2566V36.712H62.1239V35.9116Z" fill="#4AA5A5"/>
<path id="Vector_10" d="M65.5601 41.7618H36.2566V42.5622H65.5601V41.7618Z" fill="#4AA5A5"/>
<path id="Vector_11" d="M65.5601 45.2257H36.2566V46.0261H65.5601V45.2257Z" fill="#4AA5A5"/>
<path id="Vector_12" d="M65.5601 48.6897H36.2566V49.4901H65.5601V48.6897Z" fill="#4AA5A5"/>
<path id="Vector_13" d="M65.5601 52.1536H36.2566V52.9539H65.5601V52.1536Z" fill="#4AA5A5"/>
<path id="Vector_14" d="M62.1239 55.6174H36.2566V56.4178H62.1239V55.6174Z" fill="#4AA5A5"/>
<path id="Vector_15" d="M9.70598 6.03249C8.64552 6.02819 7.77071 6.89059 7.7688 7.94246C7.76689 9.02059 8.62261 9.89301 9.68308 9.89492C10.7631 9.89635 11.6274 9.03824 11.6303 7.96251C11.6327 6.90205 10.7698 6.03678 9.70598 6.03249Z" fill="#4AA5A5"/>
<path id="Vector_16" d="M15.0512 6.03249C13.9907 6.02819 13.1159 6.89059 13.114 7.94246C13.1121 9.02059 13.9678 9.89301 15.0283 9.89492C16.1083 9.89635 16.9726 9.03824 16.9755 7.96251C16.9779 6.90205 16.115 6.03678 15.0512 6.03249Z" fill="#4AA5A5"/>
<path id="Vector_17" d="M20.3964 6.03249C19.336 6.02819 18.4611 6.89059 18.4592 7.94246C18.4573 9.02059 19.313 9.89301 20.3735 9.89492C21.4535 9.89635 22.3178 9.03824 22.3207 7.96251C22.3231 6.90205 21.4602 6.03678 20.3964 6.03249Z" fill="#4AA5A5"/>
</g>
</g>
</g>
<defs>
<clipPath id="clip0_1_1959">
<rect width="74.9769" height="64" fill="white" transform="translate(0.511597)"/>
</clipPath>
</defs>
</svg>
