<svg width="18" height="18" viewBox="0 0 18 18" fill="none" xmlns="http://www.w3.org/2000/svg">
<g id="Alta Fideli.">
<g id="Group">
<path id="Vector" d="M0 17.7116C0.4 16.2786 0.78 14.875 1.16 13.4812C1.19 13.3831 1.17 13.2358 1.12 13.1475C-0.17 10.6446 -0.34 8.08288 0.85 5.52111C2.11 2.83175 4.28 1.19262 7.26 0.642967C11.73 -0.181508 16.22 2.70416 17.21 7.0621C17.94 10.2618 17.07 13.0592 14.64 15.3069C12.75 17.054 10.44 17.7803 7.84 17.5153C6.78 17.4073 5.78 17.1128 4.83 16.6319C4.68 16.5534 4.55 16.5436 4.38 16.5828C2.97 16.9558 1.55 17.3092 0.13 17.6723C0.1 17.6723 0.07 17.6821 0.01 17.7018L0 17.7116ZM2.08 15.6798C2.16 15.6602 2.22 15.6504 2.28 15.6406C2.95 15.4639 3.64 15.3167 4.3 15.1105C4.66 15.0026 4.93 15.0615 5.25 15.2381C7.05 16.2197 8.96 16.4258 10.9 15.7976C13.62 14.9142 15.29 13.0395 15.83 10.2717C16.15 8.65216 15.86 7.10136 15.06 5.64871C14.27 4.22551 13.1 3.17528 11.57 2.52748C10.16 1.91894 8.69 1.80116 7.19 2.11524C5.92 2.38025 4.8 2.95935 3.85 3.8329C2.5 5.0598 1.74 6.57134 1.55 8.3577C1.37 10.0067 1.79 11.528 2.69 12.9218C2.76 13.0297 2.78 13.1279 2.74 13.2555C2.54 13.9622 2.34 14.6689 2.14 15.3756C2.11 15.4737 2.09 15.562 2.06 15.6798H2.08Z" fill="#4D4D4D"/>
<path id="Vector_2" d="M4.31005 7.1307C4.35005 6.43382 4.60005 5.85472 5.10005 5.36396C5.37005 5.09895 5.99005 4.97136 6.33005 5.1284C6.41005 5.16766 6.50005 5.256 6.53005 5.34433C6.79005 5.94306 7.05005 6.54178 7.29005 7.15033C7.32005 7.22885 7.29005 7.35645 7.25005 7.43497C7.09005 7.68035 6.91005 7.91591 6.71005 8.14166C6.58005 8.2987 6.54005 8.4263 6.65005 8.61279C7.35005 9.75135 8.29005 10.5955 9.55005 11.1058C9.85005 11.2236 9.94005 11.2138 10.15 10.9586C10.34 10.7329 10.53 10.4973 10.71 10.2617C10.84 10.0949 10.99 10.0262 11.19 10.1145C11.8 10.3893 12.41 10.674 13 10.9684C13.08 11.0077 13.14 11.1549 13.14 11.2531C13.19 12.3327 12.4 12.9315 11.43 13.0983C10.77 13.2161 10.16 13.01 9.55005 12.8039C7.94005 12.2542 6.70005 11.2236 5.67005 9.92802C5.19005 9.33911 4.73005 8.73057 4.50005 7.99443C4.41005 7.70979 4.37005 7.40552 4.30005 7.11107L4.31005 7.1307Z" fill="#4D4D4D"/>
</g>
</g>
</svg>
